%TF.GenerationSoftware,KiCad,Pcbnew,8.0.6*%
%TF.CreationDate,2024-11-25T01:10:15+00:00*%
%TF.ProjectId,GEOFF board v1,47454f46-4620-4626-9f61-72642076312e,rev?*%
%TF.SameCoordinates,Original*%
%TF.FileFunction,Copper,L2,Bot*%
%TF.FilePolarity,Positive*%
%FSLAX46Y46*%
G04 Gerber Fmt 4.6, Leading zero omitted, Abs format (unit mm)*
G04 Created by KiCad (PCBNEW 8.0.6) date 2024-11-25 01:10:15*
%MOMM*%
%LPD*%
G01*
G04 APERTURE LIST*
%TA.AperFunction,ComponentPad*%
%ADD10C,1.000000*%
%TD*%
%TA.AperFunction,ComponentPad*%
%ADD11R,1.500000X1.050000*%
%TD*%
%TA.AperFunction,ComponentPad*%
%ADD12O,1.500000X1.050000*%
%TD*%
%TA.AperFunction,ComponentPad*%
%ADD13O,1.700000X1.700000*%
%TD*%
%TA.AperFunction,ComponentPad*%
%ADD14R,1.700000X1.700000*%
%TD*%
%TA.AperFunction,ComponentPad*%
%ADD15R,1.600000X1.600000*%
%TD*%
%TA.AperFunction,ComponentPad*%
%ADD16C,1.600000*%
%TD*%
G04 APERTURE END LIST*
D10*
%TO.P,TP2,1,1*%
%TO.N,5V signal*%
X51800000Y-138400000D03*
%TD*%
%TO.P,TP1,1,1*%
%TO.N,3v3 signal*%
X29800000Y-150400000D03*
%TD*%
D11*
%TO.P,Q2,1,E*%
%TO.N,GND*%
X47600000Y-148200000D03*
D12*
%TO.P,Q2,2,B*%
%TO.N,Net-(Q2-B)*%
X47600000Y-146930000D03*
%TO.P,Q2,3,C*%
%TO.N,5V signal*%
X47600000Y-145660000D03*
%TD*%
D11*
%TO.P,Q1,1,E*%
%TO.N,GND*%
X37800000Y-148200000D03*
D12*
%TO.P,Q1,2,B*%
%TO.N,Net-(Q1-B)*%
X37800000Y-146930000D03*
%TO.P,Q1,3,C*%
%TO.N,Net-(Q1-C)*%
X37800000Y-145660000D03*
%TD*%
D13*
%TO.P,J4,3,Pin_3*%
%TO.N,Bumper1 Neg*%
X58670000Y-158080000D03*
%TO.P,J4,2,Pin_2*%
%TO.N,Bumper2 Pos*%
X58670000Y-155540000D03*
D14*
%TO.P,J4,1,Pin_1*%
%TO.N,Bumper1 Pos*%
X58670000Y-153000000D03*
%TD*%
%TO.P,J3,1,Pin_1*%
%TO.N,Bumper1 Pos*%
X23000000Y-153000000D03*
D13*
%TO.P,J3,2,Pin_2*%
%TO.N,Bumper1 Neg*%
X23000000Y-155540000D03*
%TO.P,J3,3,Pin_3*%
%TO.N,Bumper2 Pos*%
X23000000Y-158080000D03*
%TO.P,J3,4,Pin_4*%
%TO.N,Bumper1 Neg*%
X23000000Y-160620000D03*
%TD*%
%TO.P,J2,3,Pin_3*%
%TO.N,5V*%
X58530000Y-139790000D03*
%TO.P,J2,2,Pin_2*%
%TO.N,5V signal*%
X58530000Y-142330000D03*
D14*
%TO.P,J2,1,Pin_1*%
%TO.N,GND*%
X58530000Y-144870000D03*
%TD*%
D13*
%TO.P,J1,4,Pin_4*%
%TO.N,3v3 signal*%
X23000000Y-147620000D03*
%TO.P,J1,3,Pin_3*%
%TO.N,3v3*%
X23000000Y-145080000D03*
%TO.P,J1,2,Pin_2*%
%TO.N,5V*%
X23000000Y-142540000D03*
D14*
%TO.P,J1,1,Pin_1*%
%TO.N,GND*%
X23000000Y-140000000D03*
%TD*%
D15*
%TO.P,C2,1*%
%TO.N,Bumper2 Pos*%
X36000000Y-158000000D03*
D16*
%TO.P,C2,2*%
%TO.N,Bumper1 Neg*%
X36000000Y-155500000D03*
%TD*%
D15*
%TO.P,C1,1*%
%TO.N,Bumper1 Pos*%
X47600000Y-155300000D03*
D16*
%TO.P,C1,2*%
%TO.N,Bumper1 Neg*%
X47600000Y-157800000D03*
%TD*%
%TA.AperFunction,NonConductor*%
G36*
X60004418Y-136500816D02*
G01*
X60204561Y-136515130D01*
X60222063Y-136517647D01*
X60413797Y-136559355D01*
X60430755Y-136564334D01*
X60614609Y-136632909D01*
X60630701Y-136640259D01*
X60802904Y-136734288D01*
X60817784Y-136743849D01*
X60974867Y-136861441D01*
X60988237Y-136873027D01*
X61126972Y-137011762D01*
X61138558Y-137025132D01*
X61256146Y-137182210D01*
X61265711Y-137197095D01*
X61359740Y-137369298D01*
X61367090Y-137385390D01*
X61435662Y-137569236D01*
X61440646Y-137586212D01*
X61482351Y-137777931D01*
X61484869Y-137795442D01*
X61499184Y-137995580D01*
X61499500Y-138004427D01*
X61499500Y-160995572D01*
X61499184Y-161004419D01*
X61484869Y-161204557D01*
X61482351Y-161222068D01*
X61440646Y-161413787D01*
X61435662Y-161430763D01*
X61367090Y-161614609D01*
X61359740Y-161630701D01*
X61265711Y-161802904D01*
X61256146Y-161817789D01*
X61138558Y-161974867D01*
X61126972Y-161988237D01*
X60988237Y-162126972D01*
X60974867Y-162138558D01*
X60817789Y-162256146D01*
X60802904Y-162265711D01*
X60630701Y-162359740D01*
X60614609Y-162367090D01*
X60430763Y-162435662D01*
X60413787Y-162440646D01*
X60222068Y-162482351D01*
X60204557Y-162484869D01*
X60023779Y-162497799D01*
X60004417Y-162499184D01*
X59995572Y-162499500D01*
X22004428Y-162499500D01*
X21995582Y-162499184D01*
X21973622Y-162497613D01*
X21795442Y-162484869D01*
X21777931Y-162482351D01*
X21586212Y-162440646D01*
X21569236Y-162435662D01*
X21385390Y-162367090D01*
X21369298Y-162359740D01*
X21197095Y-162265711D01*
X21182210Y-162256146D01*
X21025132Y-162138558D01*
X21011762Y-162126972D01*
X20873027Y-161988237D01*
X20861441Y-161974867D01*
X20846616Y-161955063D01*
X20743849Y-161817784D01*
X20734288Y-161802904D01*
X20640259Y-161630701D01*
X20632909Y-161614609D01*
X20586955Y-161491402D01*
X20564334Y-161430755D01*
X20559355Y-161413797D01*
X20517647Y-161222063D01*
X20515130Y-161204556D01*
X20500816Y-161004418D01*
X20500500Y-160995572D01*
X20500500Y-155539999D01*
X21644341Y-155539999D01*
X21644341Y-155540000D01*
X21664936Y-155775403D01*
X21664938Y-155775413D01*
X21726094Y-156003655D01*
X21726096Y-156003659D01*
X21726097Y-156003663D01*
X21793345Y-156147876D01*
X21825965Y-156217830D01*
X21825967Y-156217834D01*
X21961501Y-156411395D01*
X21961506Y-156411402D01*
X22128597Y-156578493D01*
X22128603Y-156578498D01*
X22314158Y-156708425D01*
X22357783Y-156763002D01*
X22364977Y-156832500D01*
X22333454Y-156894855D01*
X22314158Y-156911575D01*
X22128597Y-157041505D01*
X21961505Y-157208597D01*
X21825965Y-157402169D01*
X21825964Y-157402171D01*
X21726098Y-157616335D01*
X21726094Y-157616344D01*
X21664938Y-157844586D01*
X21664936Y-157844596D01*
X21644341Y-158079999D01*
X21644341Y-158080000D01*
X21664936Y-158315403D01*
X21664938Y-158315413D01*
X21726094Y-158543655D01*
X21726096Y-158543659D01*
X21726097Y-158543663D01*
X21825965Y-158757830D01*
X21825967Y-158757834D01*
X21961501Y-158951395D01*
X21961506Y-158951402D01*
X22128597Y-159118493D01*
X22128603Y-159118498D01*
X22314158Y-159248425D01*
X22357783Y-159303002D01*
X22364977Y-159372500D01*
X22333454Y-159434855D01*
X22314158Y-159451575D01*
X22128597Y-159581505D01*
X21961505Y-159748597D01*
X21825965Y-159942169D01*
X21825964Y-159942171D01*
X21726098Y-160156335D01*
X21726094Y-160156344D01*
X21664938Y-160384586D01*
X21664936Y-160384596D01*
X21644341Y-160619999D01*
X21644341Y-160620000D01*
X21664936Y-160855403D01*
X21664938Y-160855413D01*
X21726094Y-161083655D01*
X21726096Y-161083659D01*
X21726097Y-161083663D01*
X21825965Y-161297830D01*
X21825967Y-161297834D01*
X21919046Y-161430763D01*
X21961505Y-161491401D01*
X22128599Y-161658495D01*
X22225384Y-161726265D01*
X22322165Y-161794032D01*
X22322167Y-161794033D01*
X22322170Y-161794035D01*
X22536337Y-161893903D01*
X22764592Y-161955063D01*
X22952918Y-161971539D01*
X22999999Y-161975659D01*
X23000000Y-161975659D01*
X23000001Y-161975659D01*
X23039234Y-161972226D01*
X23235408Y-161955063D01*
X23463663Y-161893903D01*
X23677830Y-161794035D01*
X23871401Y-161658495D01*
X24038495Y-161491401D01*
X24174035Y-161297830D01*
X24273903Y-161083663D01*
X24335063Y-160855408D01*
X24355659Y-160620000D01*
X24335063Y-160384592D01*
X24273903Y-160156337D01*
X24174035Y-159942171D01*
X24038495Y-159748599D01*
X24038494Y-159748597D01*
X23871402Y-159581506D01*
X23871396Y-159581501D01*
X23685842Y-159451575D01*
X23642217Y-159396998D01*
X23635023Y-159327500D01*
X23666546Y-159265145D01*
X23685842Y-159248425D01*
X23815633Y-159157544D01*
X23871401Y-159118495D01*
X24038495Y-158951401D01*
X24174035Y-158757830D01*
X24273903Y-158543663D01*
X24335063Y-158315408D01*
X24355659Y-158080000D01*
X24335063Y-157844592D01*
X24273903Y-157616337D01*
X24174035Y-157402171D01*
X24139959Y-157353504D01*
X24038494Y-157208597D01*
X23871402Y-157041506D01*
X23871396Y-157041501D01*
X23685842Y-156911575D01*
X23642217Y-156856998D01*
X23635023Y-156787500D01*
X23666546Y-156725145D01*
X23685842Y-156708425D01*
X23740633Y-156670060D01*
X23871401Y-156578495D01*
X24038495Y-156411401D01*
X24174035Y-156217830D01*
X24273903Y-156003663D01*
X24335063Y-155775408D01*
X24355659Y-155540000D01*
X24352159Y-155499998D01*
X34694532Y-155499998D01*
X34694532Y-155500001D01*
X34714364Y-155726686D01*
X34714366Y-155726697D01*
X34773258Y-155946488D01*
X34773261Y-155946497D01*
X34869431Y-156152732D01*
X34869432Y-156152734D01*
X34999954Y-156339141D01*
X35157086Y-156496273D01*
X35190571Y-156557596D01*
X35185587Y-156627288D01*
X35143715Y-156683221D01*
X35097932Y-156704628D01*
X35092522Y-156705906D01*
X34957671Y-156756202D01*
X34957664Y-156756206D01*
X34842455Y-156842452D01*
X34842452Y-156842455D01*
X34756206Y-156957664D01*
X34756202Y-156957671D01*
X34705908Y-157092517D01*
X34699501Y-157152116D01*
X34699501Y-157152123D01*
X34699500Y-157152135D01*
X34699500Y-158847870D01*
X34699501Y-158847876D01*
X34705908Y-158907483D01*
X34756202Y-159042328D01*
X34756206Y-159042335D01*
X34842452Y-159157544D01*
X34842455Y-159157547D01*
X34957664Y-159243793D01*
X34957671Y-159243797D01*
X35092517Y-159294091D01*
X35092516Y-159294091D01*
X35099444Y-159294835D01*
X35152127Y-159300500D01*
X36847872Y-159300499D01*
X36907483Y-159294091D01*
X37042331Y-159243796D01*
X37157546Y-159157546D01*
X37243796Y-159042331D01*
X37294091Y-158907483D01*
X37300500Y-158847873D01*
X37300499Y-157799998D01*
X46294532Y-157799998D01*
X46294532Y-157800001D01*
X46314364Y-158026686D01*
X46314366Y-158026697D01*
X46373258Y-158246488D01*
X46373261Y-158246497D01*
X46469431Y-158452732D01*
X46469432Y-158452734D01*
X46599954Y-158639141D01*
X46760858Y-158800045D01*
X46760861Y-158800047D01*
X46947266Y-158930568D01*
X47153504Y-159026739D01*
X47373308Y-159085635D01*
X47535230Y-159099801D01*
X47599998Y-159105468D01*
X47600000Y-159105468D01*
X47600002Y-159105468D01*
X47656673Y-159100509D01*
X47826692Y-159085635D01*
X48046496Y-159026739D01*
X48252734Y-158930568D01*
X48439139Y-158800047D01*
X48600047Y-158639139D01*
X48730568Y-158452734D01*
X48826739Y-158246496D01*
X48885635Y-158026692D01*
X48905468Y-157800000D01*
X48885635Y-157573308D01*
X48826739Y-157353504D01*
X48730568Y-157147266D01*
X48600047Y-156960861D01*
X48600045Y-156960858D01*
X48442913Y-156803726D01*
X48409428Y-156742403D01*
X48414412Y-156672711D01*
X48456284Y-156616778D01*
X48502078Y-156595368D01*
X48507480Y-156594091D01*
X48507483Y-156594091D01*
X48549304Y-156578493D01*
X48642328Y-156543797D01*
X48642327Y-156543797D01*
X48642331Y-156543796D01*
X48757546Y-156457546D01*
X48843796Y-156342331D01*
X48894091Y-156207483D01*
X48900500Y-156147873D01*
X48900500Y-155539999D01*
X57314341Y-155539999D01*
X57314341Y-155540000D01*
X57334936Y-155775403D01*
X57334938Y-155775413D01*
X57396094Y-156003655D01*
X57396096Y-156003659D01*
X57396097Y-156003663D01*
X57463345Y-156147876D01*
X57495965Y-156217830D01*
X57495967Y-156217834D01*
X57631501Y-156411395D01*
X57631506Y-156411402D01*
X57798597Y-156578493D01*
X57798603Y-156578498D01*
X57984158Y-156708425D01*
X58027783Y-156763002D01*
X58034977Y-156832500D01*
X58003454Y-156894855D01*
X57984158Y-156911575D01*
X57798597Y-157041505D01*
X57631505Y-157208597D01*
X57495965Y-157402169D01*
X57495964Y-157402171D01*
X57396098Y-157616335D01*
X57396094Y-157616344D01*
X57334938Y-157844586D01*
X57334936Y-157844596D01*
X57314341Y-158079999D01*
X57314341Y-158080000D01*
X57334936Y-158315403D01*
X57334938Y-158315413D01*
X57396094Y-158543655D01*
X57396096Y-158543659D01*
X57396097Y-158543663D01*
X57495965Y-158757830D01*
X57495967Y-158757834D01*
X57559013Y-158847872D01*
X57631505Y-158951401D01*
X57798599Y-159118495D01*
X57854367Y-159157544D01*
X57992165Y-159254032D01*
X57992167Y-159254033D01*
X57992170Y-159254035D01*
X58206337Y-159353903D01*
X58434592Y-159415063D01*
X58622918Y-159431539D01*
X58669999Y-159435659D01*
X58670000Y-159435659D01*
X58670001Y-159435659D01*
X58709234Y-159432226D01*
X58905408Y-159415063D01*
X59133663Y-159353903D01*
X59347830Y-159254035D01*
X59541401Y-159118495D01*
X59708495Y-158951401D01*
X59844035Y-158757830D01*
X59943903Y-158543663D01*
X60005063Y-158315408D01*
X60025659Y-158080000D01*
X60005063Y-157844592D01*
X59943903Y-157616337D01*
X59844035Y-157402171D01*
X59809959Y-157353504D01*
X59708494Y-157208597D01*
X59541402Y-157041506D01*
X59541396Y-157041501D01*
X59355842Y-156911575D01*
X59312217Y-156856998D01*
X59305023Y-156787500D01*
X59336546Y-156725145D01*
X59355842Y-156708425D01*
X59410633Y-156670060D01*
X59541401Y-156578495D01*
X59708495Y-156411401D01*
X59844035Y-156217830D01*
X59943903Y-156003663D01*
X60005063Y-155775408D01*
X60025659Y-155540000D01*
X60005063Y-155304592D01*
X59943903Y-155076337D01*
X59844035Y-154862171D01*
X59833599Y-154847267D01*
X59708496Y-154668600D01*
X59700754Y-154660858D01*
X59586567Y-154546671D01*
X59553084Y-154485351D01*
X59558068Y-154415659D01*
X59599939Y-154359725D01*
X59630915Y-154342810D01*
X59762331Y-154293796D01*
X59877546Y-154207546D01*
X59963796Y-154092331D01*
X60014091Y-153957483D01*
X60020500Y-153897873D01*
X60020499Y-152102128D01*
X60014091Y-152042517D01*
X59963796Y-151907669D01*
X59963795Y-151907668D01*
X59963793Y-151907664D01*
X59877547Y-151792455D01*
X59877544Y-151792452D01*
X59762335Y-151706206D01*
X59762328Y-151706202D01*
X59627482Y-151655908D01*
X59627483Y-151655908D01*
X59567883Y-151649501D01*
X59567881Y-151649500D01*
X59567873Y-151649500D01*
X59567864Y-151649500D01*
X57772129Y-151649500D01*
X57772123Y-151649501D01*
X57712516Y-151655908D01*
X57577671Y-151706202D01*
X57577664Y-151706206D01*
X57462455Y-151792452D01*
X57462452Y-151792455D01*
X57376206Y-151907664D01*
X57376202Y-151907671D01*
X57325908Y-152042517D01*
X57319501Y-152102116D01*
X57319501Y-152102123D01*
X57319500Y-152102135D01*
X57319500Y-153897870D01*
X57319501Y-153897876D01*
X57325908Y-153957483D01*
X57376202Y-154092328D01*
X57376206Y-154092335D01*
X57462452Y-154207544D01*
X57462455Y-154207547D01*
X57577664Y-154293793D01*
X57577671Y-154293797D01*
X57709081Y-154342810D01*
X57765015Y-154384681D01*
X57789432Y-154450145D01*
X57774580Y-154518418D01*
X57753430Y-154546673D01*
X57631503Y-154668600D01*
X57495965Y-154862169D01*
X57495964Y-154862171D01*
X57396098Y-155076335D01*
X57396094Y-155076344D01*
X57334938Y-155304586D01*
X57334936Y-155304596D01*
X57314341Y-155539999D01*
X48900500Y-155539999D01*
X48900499Y-154452128D01*
X48894091Y-154392517D01*
X48891168Y-154384681D01*
X48843797Y-154257671D01*
X48843793Y-154257664D01*
X48757547Y-154142455D01*
X48757544Y-154142452D01*
X48642335Y-154056206D01*
X48642328Y-154056202D01*
X48507482Y-154005908D01*
X48507483Y-154005908D01*
X48447883Y-153999501D01*
X48447881Y-153999500D01*
X48447873Y-153999500D01*
X48447864Y-153999500D01*
X46752129Y-153999500D01*
X46752123Y-153999501D01*
X46692516Y-154005908D01*
X46557671Y-154056202D01*
X46557664Y-154056206D01*
X46442455Y-154142452D01*
X46442452Y-154142455D01*
X46356206Y-154257664D01*
X46356202Y-154257671D01*
X46305908Y-154392517D01*
X46299713Y-154450145D01*
X46299501Y-154452123D01*
X46299500Y-154452135D01*
X46299500Y-156147870D01*
X46299501Y-156147876D01*
X46305908Y-156207483D01*
X46356202Y-156342328D01*
X46356206Y-156342335D01*
X46442452Y-156457544D01*
X46442455Y-156457547D01*
X46557664Y-156543793D01*
X46557671Y-156543797D01*
X46594669Y-156557596D01*
X46692517Y-156594091D01*
X46692527Y-156594092D01*
X46697913Y-156595365D01*
X46758631Y-156629935D01*
X46791021Y-156691843D01*
X46784799Y-156761435D01*
X46757088Y-156803725D01*
X46599951Y-156960862D01*
X46469432Y-157147265D01*
X46469431Y-157147267D01*
X46373261Y-157353502D01*
X46373258Y-157353511D01*
X46314366Y-157573302D01*
X46314364Y-157573313D01*
X46294532Y-157799998D01*
X37300499Y-157799998D01*
X37300499Y-157152128D01*
X37294091Y-157092517D01*
X37275063Y-157041501D01*
X37243797Y-156957671D01*
X37243793Y-156957664D01*
X37157547Y-156842455D01*
X37157544Y-156842452D01*
X37042335Y-156756206D01*
X37042328Y-156756202D01*
X36907483Y-156705908D01*
X36902079Y-156704632D01*
X36841363Y-156670060D01*
X36808976Y-156608149D01*
X36815202Y-156538558D01*
X36842910Y-156496275D01*
X37000047Y-156339139D01*
X37130568Y-156152734D01*
X37226739Y-155946496D01*
X37285635Y-155726692D01*
X37305468Y-155500000D01*
X37285635Y-155273308D01*
X37226739Y-155053504D01*
X37130568Y-154847266D01*
X37000047Y-154660861D01*
X37000045Y-154660858D01*
X36839141Y-154499954D01*
X36652734Y-154369432D01*
X36652732Y-154369431D01*
X36446497Y-154273261D01*
X36446488Y-154273258D01*
X36226697Y-154214366D01*
X36226693Y-154214365D01*
X36226692Y-154214365D01*
X36226691Y-154214364D01*
X36226686Y-154214364D01*
X36000002Y-154194532D01*
X35999998Y-154194532D01*
X35773313Y-154214364D01*
X35773302Y-154214366D01*
X35553511Y-154273258D01*
X35553502Y-154273261D01*
X35347267Y-154369431D01*
X35347265Y-154369432D01*
X35160858Y-154499954D01*
X34999954Y-154660858D01*
X34869432Y-154847265D01*
X34869431Y-154847267D01*
X34773261Y-155053502D01*
X34773258Y-155053511D01*
X34714366Y-155273302D01*
X34714364Y-155273313D01*
X34694532Y-155499998D01*
X24352159Y-155499998D01*
X24335063Y-155304592D01*
X24273903Y-155076337D01*
X24174035Y-154862171D01*
X24163599Y-154847267D01*
X24038496Y-154668600D01*
X24030754Y-154660858D01*
X23916567Y-154546671D01*
X23883084Y-154485351D01*
X23888068Y-154415659D01*
X23929939Y-154359725D01*
X23960915Y-154342810D01*
X24092331Y-154293796D01*
X24207546Y-154207546D01*
X24293796Y-154092331D01*
X24344091Y-153957483D01*
X24350500Y-153897873D01*
X24350499Y-152102128D01*
X24344091Y-152042517D01*
X24293796Y-151907669D01*
X24293795Y-151907668D01*
X24293793Y-151907664D01*
X24207547Y-151792455D01*
X24207544Y-151792452D01*
X24092335Y-151706206D01*
X24092328Y-151706202D01*
X23957482Y-151655908D01*
X23957483Y-151655908D01*
X23897883Y-151649501D01*
X23897881Y-151649500D01*
X23897873Y-151649500D01*
X23897864Y-151649500D01*
X22102129Y-151649500D01*
X22102123Y-151649501D01*
X22042516Y-151655908D01*
X21907671Y-151706202D01*
X21907664Y-151706206D01*
X21792455Y-151792452D01*
X21792452Y-151792455D01*
X21706206Y-151907664D01*
X21706202Y-151907671D01*
X21655908Y-152042517D01*
X21649501Y-152102116D01*
X21649501Y-152102123D01*
X21649500Y-152102135D01*
X21649500Y-153897870D01*
X21649501Y-153897876D01*
X21655908Y-153957483D01*
X21706202Y-154092328D01*
X21706206Y-154092335D01*
X21792452Y-154207544D01*
X21792455Y-154207547D01*
X21907664Y-154293793D01*
X21907671Y-154293797D01*
X22039081Y-154342810D01*
X22095015Y-154384681D01*
X22119432Y-154450145D01*
X22104580Y-154518418D01*
X22083430Y-154546673D01*
X21961503Y-154668600D01*
X21825965Y-154862169D01*
X21825964Y-154862171D01*
X21726098Y-155076335D01*
X21726094Y-155076344D01*
X21664938Y-155304586D01*
X21664936Y-155304596D01*
X21644341Y-155539999D01*
X20500500Y-155539999D01*
X20500500Y-150400000D01*
X28794659Y-150400000D01*
X28813975Y-150596129D01*
X28871188Y-150784733D01*
X28964086Y-150958532D01*
X28964090Y-150958539D01*
X29089116Y-151110883D01*
X29241460Y-151235909D01*
X29241467Y-151235913D01*
X29415266Y-151328811D01*
X29415269Y-151328811D01*
X29415273Y-151328814D01*
X29603868Y-151386024D01*
X29800000Y-151405341D01*
X29996132Y-151386024D01*
X30184727Y-151328814D01*
X30358538Y-151235910D01*
X30510883Y-151110883D01*
X30635910Y-150958538D01*
X30728814Y-150784727D01*
X30786024Y-150596132D01*
X30805341Y-150400000D01*
X30786024Y-150203868D01*
X30728814Y-150015273D01*
X30728811Y-150015269D01*
X30728811Y-150015266D01*
X30635913Y-149841467D01*
X30635909Y-149841460D01*
X30510883Y-149689116D01*
X30358539Y-149564090D01*
X30358532Y-149564086D01*
X30184733Y-149471188D01*
X30184727Y-149471186D01*
X29996132Y-149413976D01*
X29996129Y-149413975D01*
X29800000Y-149394659D01*
X29603870Y-149413975D01*
X29415266Y-149471188D01*
X29241467Y-149564086D01*
X29241460Y-149564090D01*
X29089116Y-149689116D01*
X28964090Y-149841460D01*
X28964086Y-149841467D01*
X28871188Y-150015266D01*
X28813975Y-150203870D01*
X28794659Y-150400000D01*
X20500500Y-150400000D01*
X20500500Y-142539999D01*
X21644341Y-142539999D01*
X21644341Y-142540000D01*
X21664936Y-142775403D01*
X21664938Y-142775413D01*
X21726094Y-143003655D01*
X21726096Y-143003659D01*
X21726097Y-143003663D01*
X21825965Y-143217830D01*
X21825967Y-143217834D01*
X21961501Y-143411395D01*
X21961506Y-143411402D01*
X22128597Y-143578493D01*
X22128603Y-143578498D01*
X22314158Y-143708425D01*
X22357783Y-143763002D01*
X22364977Y-143832500D01*
X22333454Y-143894855D01*
X22314158Y-143911575D01*
X22128597Y-144041505D01*
X21961505Y-144208597D01*
X21825965Y-144402169D01*
X21825964Y-144402171D01*
X21726098Y-144616335D01*
X21726094Y-144616344D01*
X21664938Y-144844586D01*
X21664936Y-144844596D01*
X21644341Y-145079999D01*
X21644341Y-145080000D01*
X21664936Y-145315403D01*
X21664938Y-145315413D01*
X21726094Y-145543655D01*
X21726096Y-145543659D01*
X21726097Y-145543663D01*
X21825965Y-145757830D01*
X21825967Y-145757834D01*
X21961501Y-145951395D01*
X21961506Y-145951402D01*
X22128597Y-146118493D01*
X22128603Y-146118498D01*
X22314158Y-146248425D01*
X22357783Y-146303002D01*
X22364977Y-146372500D01*
X22333454Y-146434855D01*
X22314158Y-146451575D01*
X22128597Y-146581505D01*
X21961505Y-146748597D01*
X21825965Y-146942169D01*
X21825964Y-146942171D01*
X21726098Y-147156335D01*
X21726094Y-147156344D01*
X21664938Y-147384586D01*
X21664936Y-147384596D01*
X21644341Y-147619999D01*
X21644341Y-147620000D01*
X21664936Y-147855403D01*
X21664938Y-147855413D01*
X21726094Y-148083655D01*
X21726096Y-148083659D01*
X21726097Y-148083663D01*
X21825965Y-148297830D01*
X21825967Y-148297834D01*
X21934281Y-148452521D01*
X21961505Y-148491401D01*
X22128599Y-148658495D01*
X22225384Y-148726265D01*
X22322165Y-148794032D01*
X22322167Y-148794033D01*
X22322170Y-148794035D01*
X22536337Y-148893903D01*
X22764592Y-148955063D01*
X22952918Y-148971539D01*
X22999999Y-148975659D01*
X23000000Y-148975659D01*
X23000001Y-148975659D01*
X23039234Y-148972226D01*
X23235408Y-148955063D01*
X23463663Y-148893903D01*
X23677830Y-148794035D01*
X23871401Y-148658495D01*
X24038495Y-148491401D01*
X24174035Y-148297830D01*
X24273903Y-148083663D01*
X24335063Y-147855408D01*
X24355659Y-147620000D01*
X24335063Y-147384592D01*
X24273903Y-147156337D01*
X24174035Y-146942171D01*
X24094790Y-146828996D01*
X24038494Y-146748597D01*
X23871402Y-146581506D01*
X23871396Y-146581501D01*
X23685842Y-146451575D01*
X23642217Y-146396998D01*
X23635023Y-146327500D01*
X23666546Y-146265145D01*
X23685842Y-146248425D01*
X23806703Y-146163797D01*
X23871401Y-146118495D01*
X24038495Y-145951401D01*
X24174035Y-145757830D01*
X24266755Y-145558992D01*
X36549500Y-145558992D01*
X36549500Y-145761007D01*
X36588907Y-145959119D01*
X36588909Y-145959127D01*
X36666213Y-146145755D01*
X36700141Y-146196531D01*
X36716155Y-146220499D01*
X36719904Y-146226109D01*
X36740782Y-146292787D01*
X36722297Y-146360167D01*
X36719908Y-146363883D01*
X36711207Y-146376906D01*
X36666213Y-146444244D01*
X36588909Y-146630872D01*
X36588907Y-146630880D01*
X36549500Y-146828992D01*
X36549500Y-147031007D01*
X36588907Y-147229119D01*
X36588909Y-147229127D01*
X36622325Y-147309800D01*
X36629794Y-147379270D01*
X36610038Y-147424660D01*
X36610454Y-147424887D01*
X36607919Y-147429528D01*
X36607037Y-147431556D01*
X36606206Y-147432665D01*
X36606202Y-147432672D01*
X36555908Y-147567517D01*
X36550266Y-147619999D01*
X36549501Y-147627123D01*
X36549500Y-147627135D01*
X36549500Y-148772870D01*
X36549501Y-148772876D01*
X36555908Y-148832483D01*
X36606202Y-148967328D01*
X36606206Y-148967335D01*
X36692452Y-149082544D01*
X36692455Y-149082547D01*
X36807664Y-149168793D01*
X36807671Y-149168797D01*
X36942517Y-149219091D01*
X36942516Y-149219091D01*
X36949444Y-149219835D01*
X37002127Y-149225500D01*
X38597872Y-149225499D01*
X38657483Y-149219091D01*
X38792331Y-149168796D01*
X38907546Y-149082546D01*
X38993796Y-148967331D01*
X39044091Y-148832483D01*
X39050500Y-148772873D01*
X39050499Y-147627128D01*
X39044091Y-147567517D01*
X38993796Y-147432669D01*
X38992967Y-147431562D01*
X38992485Y-147430268D01*
X38989546Y-147424886D01*
X38990319Y-147424463D01*
X38968551Y-147366099D01*
X38977675Y-147309798D01*
X39011089Y-147229132D01*
X39011089Y-147229131D01*
X39011091Y-147229127D01*
X39050500Y-147031003D01*
X39050500Y-146828997D01*
X39011091Y-146630873D01*
X38933786Y-146444244D01*
X38880094Y-146363889D01*
X38859217Y-146297214D01*
X38877701Y-146229834D01*
X38880078Y-146226134D01*
X38933786Y-146145756D01*
X39011091Y-145959127D01*
X39050500Y-145761003D01*
X39050500Y-145558997D01*
X39050499Y-145558992D01*
X46349500Y-145558992D01*
X46349500Y-145761007D01*
X46388907Y-145959119D01*
X46388909Y-145959127D01*
X46466213Y-146145755D01*
X46500141Y-146196531D01*
X46516155Y-146220499D01*
X46519904Y-146226109D01*
X46540782Y-146292787D01*
X46522297Y-146360167D01*
X46519908Y-146363883D01*
X46511207Y-146376906D01*
X46466213Y-146444244D01*
X46388909Y-146630872D01*
X46388907Y-146630880D01*
X46349500Y-146828992D01*
X46349500Y-147031007D01*
X46388907Y-147229119D01*
X46388909Y-147229127D01*
X46422325Y-147309800D01*
X46429794Y-147379270D01*
X46410038Y-147424660D01*
X46410454Y-147424887D01*
X46407919Y-147429528D01*
X46407037Y-147431556D01*
X46406206Y-147432665D01*
X46406202Y-147432672D01*
X46355908Y-147567517D01*
X46350266Y-147619999D01*
X46349501Y-147627123D01*
X46349500Y-147627135D01*
X46349500Y-148772870D01*
X46349501Y-148772876D01*
X46355908Y-148832483D01*
X46406202Y-148967328D01*
X46406206Y-148967335D01*
X46492452Y-149082544D01*
X46492455Y-149082547D01*
X46607664Y-149168793D01*
X46607671Y-149168797D01*
X46742517Y-149219091D01*
X46742516Y-149219091D01*
X46749444Y-149219835D01*
X46802127Y-149225500D01*
X48397872Y-149225499D01*
X48457483Y-149219091D01*
X48592331Y-149168796D01*
X48707546Y-149082546D01*
X48793796Y-148967331D01*
X48844091Y-148832483D01*
X48850500Y-148772873D01*
X48850499Y-147627128D01*
X48844091Y-147567517D01*
X48793796Y-147432669D01*
X48792967Y-147431562D01*
X48792485Y-147430268D01*
X48789546Y-147424886D01*
X48790319Y-147424463D01*
X48768551Y-147366099D01*
X48777675Y-147309798D01*
X48811089Y-147229132D01*
X48811089Y-147229131D01*
X48811091Y-147229127D01*
X48850500Y-147031003D01*
X48850500Y-146828997D01*
X48811091Y-146630873D01*
X48733786Y-146444244D01*
X48680094Y-146363889D01*
X48659217Y-146297214D01*
X48677701Y-146229834D01*
X48680078Y-146226134D01*
X48733786Y-146145756D01*
X48811091Y-145959127D01*
X48850500Y-145761003D01*
X48850500Y-145558997D01*
X48811091Y-145360873D01*
X48733786Y-145174244D01*
X48733784Y-145174241D01*
X48733782Y-145174237D01*
X48621558Y-145006281D01*
X48478718Y-144863441D01*
X48310762Y-144751217D01*
X48310752Y-144751212D01*
X48124127Y-144673909D01*
X48124119Y-144673907D01*
X47926007Y-144634500D01*
X47926003Y-144634500D01*
X47273997Y-144634500D01*
X47273992Y-144634500D01*
X47075880Y-144673907D01*
X47075872Y-144673909D01*
X46889247Y-144751212D01*
X46889237Y-144751217D01*
X46721281Y-144863441D01*
X46578441Y-145006281D01*
X46466217Y-145174237D01*
X46466212Y-145174247D01*
X46388909Y-145360872D01*
X46388907Y-145360880D01*
X46349500Y-145558992D01*
X39050499Y-145558992D01*
X39011091Y-145360873D01*
X38933786Y-145174244D01*
X38933784Y-145174241D01*
X38933782Y-145174237D01*
X38821558Y-145006281D01*
X38678718Y-144863441D01*
X38510762Y-144751217D01*
X38510752Y-144751212D01*
X38324127Y-144673909D01*
X38324119Y-144673907D01*
X38126007Y-144634500D01*
X38126003Y-144634500D01*
X37473997Y-144634500D01*
X37473992Y-144634500D01*
X37275880Y-144673907D01*
X37275872Y-144673909D01*
X37089247Y-144751212D01*
X37089237Y-144751217D01*
X36921281Y-144863441D01*
X36778441Y-145006281D01*
X36666217Y-145174237D01*
X36666212Y-145174247D01*
X36588909Y-145360872D01*
X36588907Y-145360880D01*
X36549500Y-145558992D01*
X24266755Y-145558992D01*
X24273903Y-145543663D01*
X24335063Y-145315408D01*
X24355659Y-145080000D01*
X24335063Y-144844592D01*
X24273903Y-144616337D01*
X24174035Y-144402171D01*
X24038495Y-144208599D01*
X24038494Y-144208597D01*
X23871402Y-144041506D01*
X23871396Y-144041501D01*
X23685842Y-143911575D01*
X23642217Y-143856998D01*
X23635023Y-143787500D01*
X23666546Y-143725145D01*
X23685842Y-143708425D01*
X23751498Y-143662452D01*
X23871401Y-143578495D01*
X24038495Y-143411401D01*
X24174035Y-143217830D01*
X24273903Y-143003663D01*
X24335063Y-142775408D01*
X24355659Y-142540000D01*
X24335063Y-142304592D01*
X24288626Y-142131285D01*
X24273905Y-142076344D01*
X24273904Y-142076343D01*
X24273903Y-142076337D01*
X24174035Y-141862171D01*
X24095142Y-141749500D01*
X24038496Y-141668600D01*
X24022065Y-141652169D01*
X23916567Y-141546671D01*
X23883084Y-141485351D01*
X23888068Y-141415659D01*
X23929939Y-141359725D01*
X23960915Y-141342810D01*
X24092331Y-141293796D01*
X24207546Y-141207546D01*
X24293796Y-141092331D01*
X24344091Y-140957483D01*
X24350500Y-140897873D01*
X24350499Y-139749996D01*
X27994415Y-139749996D01*
X27994415Y-139750003D01*
X28014738Y-140098927D01*
X28014739Y-140098938D01*
X28075428Y-140443127D01*
X28075430Y-140443134D01*
X28175674Y-140777972D01*
X28314107Y-141098895D01*
X28314113Y-141098908D01*
X28488870Y-141401597D01*
X28697584Y-141681949D01*
X28697589Y-141681955D01*
X28742114Y-141729148D01*
X28937442Y-141936183D01*
X29104469Y-142076335D01*
X29205186Y-142160847D01*
X29205194Y-142160853D01*
X29497203Y-142352911D01*
X29497207Y-142352913D01*
X29809549Y-142509777D01*
X30137989Y-142629319D01*
X30478086Y-142709923D01*
X30825241Y-142750500D01*
X30825248Y-142750500D01*
X31174752Y-142750500D01*
X31174759Y-142750500D01*
X31521914Y-142709923D01*
X31862011Y-142629319D01*
X32190451Y-142509777D01*
X32502793Y-142352913D01*
X32794811Y-142160849D01*
X33062558Y-141936183D01*
X33302412Y-141681953D01*
X33511130Y-141401596D01*
X33685889Y-141098904D01*
X33824326Y-140777971D01*
X33924569Y-140443136D01*
X33957980Y-140253655D01*
X33985260Y-140098938D01*
X33985259Y-140098938D01*
X33985262Y-140098927D01*
X34003255Y-139789999D01*
X57174341Y-139789999D01*
X57174341Y-139790000D01*
X57194936Y-140025403D01*
X57194938Y-140025413D01*
X57256094Y-140253655D01*
X57256096Y-140253659D01*
X57256097Y-140253663D01*
X57344446Y-140443127D01*
X57355965Y-140467830D01*
X57355967Y-140467834D01*
X57491501Y-140661395D01*
X57491506Y-140661402D01*
X57658597Y-140828493D01*
X57658603Y-140828498D01*
X57844158Y-140958425D01*
X57887783Y-141013002D01*
X57894977Y-141082500D01*
X57863454Y-141144855D01*
X57844158Y-141161575D01*
X57658597Y-141291505D01*
X57491505Y-141458597D01*
X57355965Y-141652169D01*
X57355964Y-141652171D01*
X57256098Y-141866335D01*
X57256094Y-141866344D01*
X57194938Y-142094586D01*
X57194936Y-142094596D01*
X57174341Y-142329999D01*
X57174341Y-142330000D01*
X57194936Y-142565403D01*
X57194938Y-142565413D01*
X57256094Y-142793655D01*
X57256096Y-142793659D01*
X57256097Y-142793663D01*
X57354018Y-143003655D01*
X57355965Y-143007830D01*
X57355967Y-143007834D01*
X57464281Y-143162521D01*
X57491501Y-143201396D01*
X57491506Y-143201402D01*
X57613430Y-143323326D01*
X57646915Y-143384649D01*
X57641931Y-143454341D01*
X57600059Y-143510274D01*
X57569083Y-143527189D01*
X57437669Y-143576203D01*
X57437664Y-143576206D01*
X57322455Y-143662452D01*
X57322452Y-143662455D01*
X57236206Y-143777664D01*
X57236202Y-143777671D01*
X57185908Y-143912517D01*
X57179501Y-143972116D01*
X57179501Y-143972123D01*
X57179500Y-143972135D01*
X57179500Y-145767870D01*
X57179501Y-145767876D01*
X57185908Y-145827483D01*
X57236202Y-145962328D01*
X57236206Y-145962335D01*
X57322452Y-146077544D01*
X57322455Y-146077547D01*
X57437664Y-146163793D01*
X57437671Y-146163797D01*
X57572517Y-146214091D01*
X57572516Y-146214091D01*
X57579444Y-146214835D01*
X57632127Y-146220500D01*
X59427872Y-146220499D01*
X59487483Y-146214091D01*
X59622331Y-146163796D01*
X59737546Y-146077546D01*
X59823796Y-145962331D01*
X59874091Y-145827483D01*
X59880500Y-145767873D01*
X59880499Y-143972128D01*
X59874091Y-143912517D01*
X59871647Y-143905965D01*
X59823797Y-143777671D01*
X59823793Y-143777664D01*
X59737547Y-143662455D01*
X59737544Y-143662452D01*
X59622335Y-143576206D01*
X59622328Y-143576202D01*
X59490917Y-143527189D01*
X59434983Y-143485318D01*
X59410566Y-143419853D01*
X59425418Y-143351580D01*
X59446563Y-143323332D01*
X59568495Y-143201401D01*
X59704035Y-143007830D01*
X59803903Y-142793663D01*
X59865063Y-142565408D01*
X59885659Y-142330000D01*
X59865063Y-142094592D01*
X59803903Y-141866337D01*
X59704035Y-141652171D01*
X59568495Y-141458599D01*
X59568494Y-141458597D01*
X59401402Y-141291506D01*
X59401396Y-141291501D01*
X59215842Y-141161575D01*
X59172217Y-141106998D01*
X59165023Y-141037500D01*
X59196546Y-140975145D01*
X59215842Y-140958425D01*
X59238026Y-140942891D01*
X59401401Y-140828495D01*
X59568495Y-140661401D01*
X59704035Y-140467830D01*
X59803903Y-140253663D01*
X59865063Y-140025408D01*
X59885659Y-139790000D01*
X59865063Y-139554592D01*
X59803903Y-139326337D01*
X59704035Y-139112171D01*
X59703134Y-139110883D01*
X59568494Y-138918597D01*
X59401402Y-138751506D01*
X59401395Y-138751501D01*
X59207834Y-138615967D01*
X59207830Y-138615965D01*
X59165298Y-138596132D01*
X58993663Y-138516097D01*
X58993659Y-138516096D01*
X58993655Y-138516094D01*
X58765413Y-138454938D01*
X58765403Y-138454936D01*
X58530001Y-138434341D01*
X58529999Y-138434341D01*
X58294596Y-138454936D01*
X58294586Y-138454938D01*
X58066344Y-138516094D01*
X58066335Y-138516098D01*
X57852171Y-138615964D01*
X57852169Y-138615965D01*
X57658597Y-138751505D01*
X57491505Y-138918597D01*
X57355965Y-139112169D01*
X57355964Y-139112171D01*
X57256098Y-139326335D01*
X57256094Y-139326344D01*
X57194938Y-139554586D01*
X57194936Y-139554596D01*
X57174341Y-139789999D01*
X34003255Y-139789999D01*
X34005585Y-139750000D01*
X33985262Y-139401073D01*
X33985260Y-139401061D01*
X33924571Y-139056872D01*
X33924569Y-139056865D01*
X33924569Y-139056864D01*
X33824326Y-138722029D01*
X33685889Y-138401096D01*
X33685256Y-138400000D01*
X50794659Y-138400000D01*
X50813975Y-138596129D01*
X50813976Y-138596132D01*
X50861108Y-138751506D01*
X50871188Y-138784733D01*
X50964086Y-138958532D01*
X50964090Y-138958539D01*
X51089116Y-139110883D01*
X51241460Y-139235909D01*
X51241467Y-139235913D01*
X51415266Y-139328811D01*
X51415269Y-139328811D01*
X51415273Y-139328814D01*
X51603868Y-139386024D01*
X51800000Y-139405341D01*
X51996132Y-139386024D01*
X52184727Y-139328814D01*
X52189362Y-139326337D01*
X52358532Y-139235913D01*
X52358538Y-139235910D01*
X52510883Y-139110883D01*
X52635910Y-138958538D01*
X52728814Y-138784727D01*
X52786024Y-138596132D01*
X52805341Y-138400000D01*
X52786024Y-138203868D01*
X52728814Y-138015273D01*
X52728811Y-138015269D01*
X52728811Y-138015266D01*
X52635913Y-137841467D01*
X52635909Y-137841460D01*
X52510883Y-137689116D01*
X52358539Y-137564090D01*
X52358532Y-137564086D01*
X52184733Y-137471188D01*
X52184727Y-137471186D01*
X51996132Y-137413976D01*
X51996129Y-137413975D01*
X51800000Y-137394659D01*
X51603870Y-137413975D01*
X51415266Y-137471188D01*
X51241467Y-137564086D01*
X51241460Y-137564090D01*
X51089116Y-137689116D01*
X50964090Y-137841460D01*
X50964086Y-137841467D01*
X50871188Y-138015266D01*
X50813975Y-138203870D01*
X50794659Y-138400000D01*
X33685256Y-138400000D01*
X33511130Y-138098404D01*
X33511129Y-138098402D01*
X33302415Y-137818050D01*
X33302410Y-137818044D01*
X33180772Y-137689116D01*
X33062558Y-137563817D01*
X32849917Y-137385390D01*
X32794813Y-137339152D01*
X32794805Y-137339146D01*
X32502796Y-137147088D01*
X32190458Y-136990226D01*
X32190452Y-136990223D01*
X31862012Y-136870681D01*
X31862009Y-136870680D01*
X31521915Y-136790077D01*
X31478519Y-136785004D01*
X31174759Y-136749500D01*
X30825241Y-136749500D01*
X30521480Y-136785004D01*
X30478085Y-136790077D01*
X30478083Y-136790077D01*
X30137990Y-136870680D01*
X30137987Y-136870681D01*
X29809547Y-136990223D01*
X29809541Y-136990226D01*
X29497203Y-137147088D01*
X29205194Y-137339146D01*
X29205186Y-137339152D01*
X28937442Y-137563817D01*
X28937440Y-137563819D01*
X28697589Y-137818044D01*
X28697584Y-137818050D01*
X28488870Y-138098402D01*
X28314113Y-138401091D01*
X28314107Y-138401104D01*
X28175674Y-138722027D01*
X28075430Y-139056865D01*
X28075428Y-139056872D01*
X28014739Y-139401061D01*
X28014738Y-139401072D01*
X27994415Y-139749996D01*
X24350499Y-139749996D01*
X24350499Y-139102128D01*
X24344091Y-139042517D01*
X24312769Y-138958539D01*
X24293797Y-138907671D01*
X24293793Y-138907664D01*
X24207547Y-138792455D01*
X24207544Y-138792452D01*
X24092335Y-138706206D01*
X24092328Y-138706202D01*
X23957482Y-138655908D01*
X23957483Y-138655908D01*
X23897883Y-138649501D01*
X23897881Y-138649500D01*
X23897873Y-138649500D01*
X23897864Y-138649500D01*
X22102129Y-138649500D01*
X22102123Y-138649501D01*
X22042516Y-138655908D01*
X21907671Y-138706202D01*
X21907664Y-138706206D01*
X21792455Y-138792452D01*
X21792452Y-138792455D01*
X21706206Y-138907664D01*
X21706202Y-138907671D01*
X21655908Y-139042517D01*
X21649501Y-139102116D01*
X21649501Y-139102123D01*
X21649500Y-139102135D01*
X21649500Y-140897870D01*
X21649501Y-140897876D01*
X21655908Y-140957483D01*
X21706202Y-141092328D01*
X21706206Y-141092335D01*
X21792452Y-141207544D01*
X21792455Y-141207547D01*
X21907664Y-141293793D01*
X21907671Y-141293797D01*
X22039081Y-141342810D01*
X22095015Y-141384681D01*
X22119432Y-141450145D01*
X22104580Y-141518418D01*
X22083430Y-141546673D01*
X21961503Y-141668600D01*
X21825965Y-141862169D01*
X21825964Y-141862171D01*
X21726098Y-142076335D01*
X21726094Y-142076344D01*
X21664938Y-142304586D01*
X21664936Y-142304596D01*
X21644341Y-142539999D01*
X20500500Y-142539999D01*
X20500500Y-138004427D01*
X20500816Y-137995581D01*
X20511318Y-137848748D01*
X20515130Y-137795436D01*
X20517646Y-137777938D01*
X20559356Y-137586199D01*
X20564333Y-137569248D01*
X20632911Y-137385385D01*
X20640259Y-137369298D01*
X20702815Y-137254734D01*
X20734291Y-137197089D01*
X20743845Y-137182221D01*
X20861448Y-137025123D01*
X20873020Y-137011769D01*
X21011769Y-136873020D01*
X21025123Y-136861448D01*
X21182221Y-136743845D01*
X21197089Y-136734291D01*
X21369298Y-136640258D01*
X21385385Y-136632911D01*
X21569248Y-136564333D01*
X21586199Y-136559356D01*
X21777938Y-136517646D01*
X21795436Y-136515130D01*
X21995582Y-136500816D01*
X22004428Y-136500500D01*
X22065892Y-136500500D01*
X59934108Y-136500500D01*
X59995572Y-136500500D01*
X60004418Y-136500816D01*
G37*
%TD.AperFunction*%
M02*
