%TF.GenerationSoftware,KiCad,Pcbnew,8.0.6*%
%TF.CreationDate,2024-11-25T01:10:17+00:00*%
%TF.ProjectId,GEOFF board v1,47454f46-4620-4626-9f61-72642076312e,rev?*%
%TF.SameCoordinates,Original*%
%TF.FileFunction,Drillmap*%
%TF.FilePolarity,Positive*%
%FSLAX45Y45*%
G04 Gerber Fmt 4.5, Leading zero omitted, Abs format (unit mm)*
G04 Created by KiCad (PCBNEW 8.0.6) date 2024-11-25 01:10:17*
%MOMM*%
%LPD*%
G01*
G04 APERTURE LIST*
%ADD10C,0.050000*%
%ADD11C,0.200000*%
G04 APERTURE END LIST*
D10*
X3350000Y-13975000D02*
G75*
G02*
X2850000Y-13975000I-250000J0D01*
G01*
X2850000Y-13975000D02*
G75*
G02*
X3350000Y-13975000I250000J0D01*
G01*
X2200000Y-16300000D02*
G75*
G02*
X2000000Y-16100000I0J200000D01*
G01*
X2000000Y-13800000D02*
G75*
G02*
X2200000Y-13600000I200000J0D01*
G01*
X6200000Y-16100000D02*
G75*
G02*
X6000000Y-16300000I-200000J0D01*
G01*
X6000000Y-13600000D02*
G75*
G02*
X6200000Y-13800000I0J-200000D01*
G01*
X2000000Y-16100000D02*
X2000000Y-13800000D01*
X6000000Y-16300000D02*
X2200000Y-16300000D01*
X2200000Y-13600000D02*
X6000000Y-13600000D01*
X6200000Y-13800000D02*
X6200000Y-16100000D01*
D11*
X2258277Y-16613984D02*
X2258277Y-16413984D01*
X2258277Y-16413984D02*
X2305896Y-16413984D01*
X2305896Y-16413984D02*
X2334467Y-16423508D01*
X2334467Y-16423508D02*
X2353515Y-16442555D01*
X2353515Y-16442555D02*
X2363039Y-16461603D01*
X2363039Y-16461603D02*
X2372563Y-16499698D01*
X2372563Y-16499698D02*
X2372563Y-16528269D01*
X2372563Y-16528269D02*
X2363039Y-16566365D01*
X2363039Y-16566365D02*
X2353515Y-16585412D01*
X2353515Y-16585412D02*
X2334467Y-16604460D01*
X2334467Y-16604460D02*
X2305896Y-16613984D01*
X2305896Y-16613984D02*
X2258277Y-16613984D01*
X2458277Y-16613984D02*
X2458277Y-16480650D01*
X2458277Y-16518746D02*
X2467801Y-16499698D01*
X2467801Y-16499698D02*
X2477324Y-16490174D01*
X2477324Y-16490174D02*
X2496372Y-16480650D01*
X2496372Y-16480650D02*
X2515420Y-16480650D01*
X2582086Y-16613984D02*
X2582086Y-16480650D01*
X2582086Y-16413984D02*
X2572563Y-16423508D01*
X2572563Y-16423508D02*
X2582086Y-16433031D01*
X2582086Y-16433031D02*
X2591610Y-16423508D01*
X2591610Y-16423508D02*
X2582086Y-16413984D01*
X2582086Y-16413984D02*
X2582086Y-16433031D01*
X2705896Y-16613984D02*
X2686848Y-16604460D01*
X2686848Y-16604460D02*
X2677324Y-16585412D01*
X2677324Y-16585412D02*
X2677324Y-16413984D01*
X2810658Y-16613984D02*
X2791610Y-16604460D01*
X2791610Y-16604460D02*
X2782086Y-16585412D01*
X2782086Y-16585412D02*
X2782086Y-16413984D01*
X3039229Y-16613984D02*
X3039229Y-16413984D01*
X3039229Y-16413984D02*
X3105896Y-16556841D01*
X3105896Y-16556841D02*
X3172562Y-16413984D01*
X3172562Y-16413984D02*
X3172562Y-16613984D01*
X3353515Y-16613984D02*
X3353515Y-16509222D01*
X3353515Y-16509222D02*
X3343991Y-16490174D01*
X3343991Y-16490174D02*
X3324943Y-16480650D01*
X3324943Y-16480650D02*
X3286848Y-16480650D01*
X3286848Y-16480650D02*
X3267801Y-16490174D01*
X3353515Y-16604460D02*
X3334467Y-16613984D01*
X3334467Y-16613984D02*
X3286848Y-16613984D01*
X3286848Y-16613984D02*
X3267801Y-16604460D01*
X3267801Y-16604460D02*
X3258277Y-16585412D01*
X3258277Y-16585412D02*
X3258277Y-16566365D01*
X3258277Y-16566365D02*
X3267801Y-16547317D01*
X3267801Y-16547317D02*
X3286848Y-16537793D01*
X3286848Y-16537793D02*
X3334467Y-16537793D01*
X3334467Y-16537793D02*
X3353515Y-16528269D01*
X3448753Y-16480650D02*
X3448753Y-16680650D01*
X3448753Y-16490174D02*
X3467801Y-16480650D01*
X3467801Y-16480650D02*
X3505896Y-16480650D01*
X3505896Y-16480650D02*
X3524943Y-16490174D01*
X3524943Y-16490174D02*
X3534467Y-16499698D01*
X3534467Y-16499698D02*
X3543991Y-16518746D01*
X3543991Y-16518746D02*
X3543991Y-16575888D01*
X3543991Y-16575888D02*
X3534467Y-16594936D01*
X3534467Y-16594936D02*
X3524943Y-16604460D01*
X3524943Y-16604460D02*
X3505896Y-16613984D01*
X3505896Y-16613984D02*
X3467801Y-16613984D01*
X3467801Y-16613984D02*
X3448753Y-16604460D01*
X3629705Y-16594936D02*
X3639229Y-16604460D01*
X3639229Y-16604460D02*
X3629705Y-16613984D01*
X3629705Y-16613984D02*
X3620182Y-16604460D01*
X3620182Y-16604460D02*
X3629705Y-16594936D01*
X3629705Y-16594936D02*
X3629705Y-16613984D01*
X3629705Y-16490174D02*
X3639229Y-16499698D01*
X3639229Y-16499698D02*
X3629705Y-16509222D01*
X3629705Y-16509222D02*
X3620182Y-16499698D01*
X3620182Y-16499698D02*
X3629705Y-16490174D01*
X3629705Y-16490174D02*
X3629705Y-16509222D01*
M02*
