M48
; DRILL file {KiCad 8.0.6} date 2024-11-25T01:10:18+0000
; FORMAT={-:-/ absolute / inch / decimal}
; #@! TF.CreationDate,2024-11-25T01:10:18+00:00
; #@! TF.GenerationSoftware,Kicad,Pcbnew,8.0.6
; #@! TF.FileFunction,Plated,1,2,PTH
FMAT,2
INCH
; #@! TA.AperFunction,Plated,PTH,ComponentDrill
T1C0.0197
; #@! TA.AperFunction,Plated,PTH,ComponentDrill
T2C0.0295
; #@! TA.AperFunction,Plated,PTH,ComponentDrill
T3C0.0315
; #@! TA.AperFunction,Plated,PTH,ComponentDrill
T4C0.0394
%
G90
G05
T1
X1.1732Y-5.9213
X2.0394Y-5.4488
T2
X1.4882Y-5.7346
X1.4882Y-5.7846
X1.4882Y-5.8346
X1.874Y-5.7346
X1.874Y-5.7846
X1.874Y-5.8346
T3
X1.4173Y-6.122
X1.4173Y-6.2205
X1.874Y-6.1142
X1.874Y-6.2126
T4
X0.9055Y-5.5118
X0.9055Y-5.6118
X0.9055Y-5.7118
X0.9055Y-5.8118
X0.9055Y-6.0236
X0.9055Y-6.1236
X0.9055Y-6.2236
X0.9055Y-6.3236
X2.3043Y-5.5035
X2.3043Y-5.6035
X2.3043Y-5.7035
X2.3098Y-6.0236
X2.3098Y-6.1236
X2.3098Y-6.2236
M30
