%TF.GenerationSoftware,KiCad,Pcbnew,8.0.6*%
%TF.CreationDate,2024-11-25T01:10:15+00:00*%
%TF.ProjectId,GEOFF board v1,47454f46-4620-4626-9f61-72642076312e,rev?*%
%TF.SameCoordinates,Original*%
%TF.FileFunction,Legend,Top*%
%TF.FilePolarity,Positive*%
%FSLAX46Y46*%
G04 Gerber Fmt 4.6, Leading zero omitted, Abs format (unit mm)*
G04 Created by KiCad (PCBNEW 8.0.6) date 2024-11-25 01:10:15*
%MOMM*%
%LPD*%
G01*
G04 APERTURE LIST*
%ADD10C,0.150000*%
%ADD11C,0.120000*%
G04 APERTURE END LIST*
D10*
X50538095Y-139454819D02*
X51109523Y-139454819D01*
X50823809Y-140454819D02*
X50823809Y-139454819D01*
X51442857Y-140454819D02*
X51442857Y-139454819D01*
X51442857Y-139454819D02*
X51823809Y-139454819D01*
X51823809Y-139454819D02*
X51919047Y-139502438D01*
X51919047Y-139502438D02*
X51966666Y-139550057D01*
X51966666Y-139550057D02*
X52014285Y-139645295D01*
X52014285Y-139645295D02*
X52014285Y-139788152D01*
X52014285Y-139788152D02*
X51966666Y-139883390D01*
X51966666Y-139883390D02*
X51919047Y-139931009D01*
X51919047Y-139931009D02*
X51823809Y-139978628D01*
X51823809Y-139978628D02*
X51442857Y-139978628D01*
X52395238Y-139550057D02*
X52442857Y-139502438D01*
X52442857Y-139502438D02*
X52538095Y-139454819D01*
X52538095Y-139454819D02*
X52776190Y-139454819D01*
X52776190Y-139454819D02*
X52871428Y-139502438D01*
X52871428Y-139502438D02*
X52919047Y-139550057D01*
X52919047Y-139550057D02*
X52966666Y-139645295D01*
X52966666Y-139645295D02*
X52966666Y-139740533D01*
X52966666Y-139740533D02*
X52919047Y-139883390D01*
X52919047Y-139883390D02*
X52347619Y-140454819D01*
X52347619Y-140454819D02*
X52966666Y-140454819D01*
X26138095Y-149854819D02*
X26709523Y-149854819D01*
X26423809Y-150854819D02*
X26423809Y-149854819D01*
X27042857Y-150854819D02*
X27042857Y-149854819D01*
X27042857Y-149854819D02*
X27423809Y-149854819D01*
X27423809Y-149854819D02*
X27519047Y-149902438D01*
X27519047Y-149902438D02*
X27566666Y-149950057D01*
X27566666Y-149950057D02*
X27614285Y-150045295D01*
X27614285Y-150045295D02*
X27614285Y-150188152D01*
X27614285Y-150188152D02*
X27566666Y-150283390D01*
X27566666Y-150283390D02*
X27519047Y-150331009D01*
X27519047Y-150331009D02*
X27423809Y-150378628D01*
X27423809Y-150378628D02*
X27042857Y-150378628D01*
X28566666Y-150854819D02*
X27995238Y-150854819D01*
X28280952Y-150854819D02*
X28280952Y-149854819D01*
X28280952Y-149854819D02*
X28185714Y-149997676D01*
X28185714Y-149997676D02*
X28090476Y-150092914D01*
X28090476Y-150092914D02*
X27995238Y-150140533D01*
X52320833Y-144454819D02*
X51987500Y-143978628D01*
X51749405Y-144454819D02*
X51749405Y-143454819D01*
X51749405Y-143454819D02*
X52130357Y-143454819D01*
X52130357Y-143454819D02*
X52225595Y-143502438D01*
X52225595Y-143502438D02*
X52273214Y-143550057D01*
X52273214Y-143550057D02*
X52320833Y-143645295D01*
X52320833Y-143645295D02*
X52320833Y-143788152D01*
X52320833Y-143788152D02*
X52273214Y-143883390D01*
X52273214Y-143883390D02*
X52225595Y-143931009D01*
X52225595Y-143931009D02*
X52130357Y-143978628D01*
X52130357Y-143978628D02*
X51749405Y-143978628D01*
X53177976Y-143788152D02*
X53177976Y-144454819D01*
X52939881Y-143407200D02*
X52701786Y-144121485D01*
X52701786Y-144121485D02*
X53320833Y-144121485D01*
X45545833Y-140454819D02*
X45212500Y-139978628D01*
X44974405Y-140454819D02*
X44974405Y-139454819D01*
X44974405Y-139454819D02*
X45355357Y-139454819D01*
X45355357Y-139454819D02*
X45450595Y-139502438D01*
X45450595Y-139502438D02*
X45498214Y-139550057D01*
X45498214Y-139550057D02*
X45545833Y-139645295D01*
X45545833Y-139645295D02*
X45545833Y-139788152D01*
X45545833Y-139788152D02*
X45498214Y-139883390D01*
X45498214Y-139883390D02*
X45450595Y-139931009D01*
X45450595Y-139931009D02*
X45355357Y-139978628D01*
X45355357Y-139978628D02*
X44974405Y-139978628D01*
X45879167Y-139454819D02*
X46498214Y-139454819D01*
X46498214Y-139454819D02*
X46164881Y-139835771D01*
X46164881Y-139835771D02*
X46307738Y-139835771D01*
X46307738Y-139835771D02*
X46402976Y-139883390D01*
X46402976Y-139883390D02*
X46450595Y-139931009D01*
X46450595Y-139931009D02*
X46498214Y-140026247D01*
X46498214Y-140026247D02*
X46498214Y-140264342D01*
X46498214Y-140264342D02*
X46450595Y-140359580D01*
X46450595Y-140359580D02*
X46402976Y-140407200D01*
X46402976Y-140407200D02*
X46307738Y-140454819D01*
X46307738Y-140454819D02*
X46022024Y-140454819D01*
X46022024Y-140454819D02*
X45926786Y-140407200D01*
X45926786Y-140407200D02*
X45879167Y-140359580D01*
X37320833Y-140454819D02*
X36987500Y-139978628D01*
X36749405Y-140454819D02*
X36749405Y-139454819D01*
X36749405Y-139454819D02*
X37130357Y-139454819D01*
X37130357Y-139454819D02*
X37225595Y-139502438D01*
X37225595Y-139502438D02*
X37273214Y-139550057D01*
X37273214Y-139550057D02*
X37320833Y-139645295D01*
X37320833Y-139645295D02*
X37320833Y-139788152D01*
X37320833Y-139788152D02*
X37273214Y-139883390D01*
X37273214Y-139883390D02*
X37225595Y-139931009D01*
X37225595Y-139931009D02*
X37130357Y-139978628D01*
X37130357Y-139978628D02*
X36749405Y-139978628D01*
X37701786Y-139550057D02*
X37749405Y-139502438D01*
X37749405Y-139502438D02*
X37844643Y-139454819D01*
X37844643Y-139454819D02*
X38082738Y-139454819D01*
X38082738Y-139454819D02*
X38177976Y-139502438D01*
X38177976Y-139502438D02*
X38225595Y-139550057D01*
X38225595Y-139550057D02*
X38273214Y-139645295D01*
X38273214Y-139645295D02*
X38273214Y-139740533D01*
X38273214Y-139740533D02*
X38225595Y-139883390D01*
X38225595Y-139883390D02*
X37654167Y-140454819D01*
X37654167Y-140454819D02*
X38273214Y-140454819D01*
X30120833Y-146424819D02*
X29787500Y-145948628D01*
X29549405Y-146424819D02*
X29549405Y-145424819D01*
X29549405Y-145424819D02*
X29930357Y-145424819D01*
X29930357Y-145424819D02*
X30025595Y-145472438D01*
X30025595Y-145472438D02*
X30073214Y-145520057D01*
X30073214Y-145520057D02*
X30120833Y-145615295D01*
X30120833Y-145615295D02*
X30120833Y-145758152D01*
X30120833Y-145758152D02*
X30073214Y-145853390D01*
X30073214Y-145853390D02*
X30025595Y-145901009D01*
X30025595Y-145901009D02*
X29930357Y-145948628D01*
X29930357Y-145948628D02*
X29549405Y-145948628D01*
X31073214Y-146424819D02*
X30501786Y-146424819D01*
X30787500Y-146424819D02*
X30787500Y-145424819D01*
X30787500Y-145424819D02*
X30692262Y-145567676D01*
X30692262Y-145567676D02*
X30597024Y-145662914D01*
X30597024Y-145662914D02*
X30501786Y-145710533D01*
X44590057Y-147025238D02*
X44542438Y-147120476D01*
X44542438Y-147120476D02*
X44447200Y-147215714D01*
X44447200Y-147215714D02*
X44304342Y-147358571D01*
X44304342Y-147358571D02*
X44256723Y-147453809D01*
X44256723Y-147453809D02*
X44256723Y-147549047D01*
X44494819Y-147501428D02*
X44447200Y-147596666D01*
X44447200Y-147596666D02*
X44351961Y-147691904D01*
X44351961Y-147691904D02*
X44161485Y-147739523D01*
X44161485Y-147739523D02*
X43828152Y-147739523D01*
X43828152Y-147739523D02*
X43637676Y-147691904D01*
X43637676Y-147691904D02*
X43542438Y-147596666D01*
X43542438Y-147596666D02*
X43494819Y-147501428D01*
X43494819Y-147501428D02*
X43494819Y-147310952D01*
X43494819Y-147310952D02*
X43542438Y-147215714D01*
X43542438Y-147215714D02*
X43637676Y-147120476D01*
X43637676Y-147120476D02*
X43828152Y-147072857D01*
X43828152Y-147072857D02*
X44161485Y-147072857D01*
X44161485Y-147072857D02*
X44351961Y-147120476D01*
X44351961Y-147120476D02*
X44447200Y-147215714D01*
X44447200Y-147215714D02*
X44494819Y-147310952D01*
X44494819Y-147310952D02*
X44494819Y-147501428D01*
X43590057Y-146691904D02*
X43542438Y-146644285D01*
X43542438Y-146644285D02*
X43494819Y-146549047D01*
X43494819Y-146549047D02*
X43494819Y-146310952D01*
X43494819Y-146310952D02*
X43542438Y-146215714D01*
X43542438Y-146215714D02*
X43590057Y-146168095D01*
X43590057Y-146168095D02*
X43685295Y-146120476D01*
X43685295Y-146120476D02*
X43780533Y-146120476D01*
X43780533Y-146120476D02*
X43923390Y-146168095D01*
X43923390Y-146168095D02*
X44494819Y-146739523D01*
X44494819Y-146739523D02*
X44494819Y-146120476D01*
X34790057Y-147025238D02*
X34742438Y-147120476D01*
X34742438Y-147120476D02*
X34647200Y-147215714D01*
X34647200Y-147215714D02*
X34504342Y-147358571D01*
X34504342Y-147358571D02*
X34456723Y-147453809D01*
X34456723Y-147453809D02*
X34456723Y-147549047D01*
X34694819Y-147501428D02*
X34647200Y-147596666D01*
X34647200Y-147596666D02*
X34551961Y-147691904D01*
X34551961Y-147691904D02*
X34361485Y-147739523D01*
X34361485Y-147739523D02*
X34028152Y-147739523D01*
X34028152Y-147739523D02*
X33837676Y-147691904D01*
X33837676Y-147691904D02*
X33742438Y-147596666D01*
X33742438Y-147596666D02*
X33694819Y-147501428D01*
X33694819Y-147501428D02*
X33694819Y-147310952D01*
X33694819Y-147310952D02*
X33742438Y-147215714D01*
X33742438Y-147215714D02*
X33837676Y-147120476D01*
X33837676Y-147120476D02*
X34028152Y-147072857D01*
X34028152Y-147072857D02*
X34361485Y-147072857D01*
X34361485Y-147072857D02*
X34551961Y-147120476D01*
X34551961Y-147120476D02*
X34647200Y-147215714D01*
X34647200Y-147215714D02*
X34694819Y-147310952D01*
X34694819Y-147310952D02*
X34694819Y-147501428D01*
X34694819Y-146120476D02*
X34694819Y-146691904D01*
X34694819Y-146406190D02*
X33694819Y-146406190D01*
X33694819Y-146406190D02*
X33837676Y-146501428D01*
X33837676Y-146501428D02*
X33932914Y-146596666D01*
X33932914Y-146596666D02*
X33980533Y-146691904D01*
X58336666Y-150124819D02*
X58336666Y-150839104D01*
X58336666Y-150839104D02*
X58289047Y-150981961D01*
X58289047Y-150981961D02*
X58193809Y-151077200D01*
X58193809Y-151077200D02*
X58050952Y-151124819D01*
X58050952Y-151124819D02*
X57955714Y-151124819D01*
X59241428Y-150458152D02*
X59241428Y-151124819D01*
X59003333Y-150077200D02*
X58765238Y-150791485D01*
X58765238Y-150791485D02*
X59384285Y-150791485D01*
X55169104Y-160571428D02*
X55169104Y-160095238D01*
X55454819Y-160666666D02*
X54454819Y-160333333D01*
X54454819Y-160333333D02*
X55454819Y-160000000D01*
X55454819Y-159666666D02*
X54788152Y-159666666D01*
X54978628Y-159666666D02*
X54883390Y-159619047D01*
X54883390Y-159619047D02*
X54835771Y-159571428D01*
X54835771Y-159571428D02*
X54788152Y-159476190D01*
X54788152Y-159476190D02*
X54788152Y-159380952D01*
X55454819Y-158619047D02*
X54454819Y-158619047D01*
X55407200Y-158619047D02*
X55454819Y-158714285D01*
X55454819Y-158714285D02*
X55454819Y-158904761D01*
X55454819Y-158904761D02*
X55407200Y-158999999D01*
X55407200Y-158999999D02*
X55359580Y-159047618D01*
X55359580Y-159047618D02*
X55264342Y-159095237D01*
X55264342Y-159095237D02*
X54978628Y-159095237D01*
X54978628Y-159095237D02*
X54883390Y-159047618D01*
X54883390Y-159047618D02*
X54835771Y-158999999D01*
X54835771Y-158999999D02*
X54788152Y-158904761D01*
X54788152Y-158904761D02*
X54788152Y-158714285D01*
X54788152Y-158714285D02*
X54835771Y-158619047D01*
X54788152Y-157714285D02*
X55454819Y-157714285D01*
X54788152Y-158142856D02*
X55311961Y-158142856D01*
X55311961Y-158142856D02*
X55407200Y-158095237D01*
X55407200Y-158095237D02*
X55454819Y-157999999D01*
X55454819Y-157999999D02*
X55454819Y-157857142D01*
X55454819Y-157857142D02*
X55407200Y-157761904D01*
X55407200Y-157761904D02*
X55359580Y-157714285D01*
X55454819Y-157238094D02*
X54788152Y-157238094D01*
X54454819Y-157238094D02*
X54502438Y-157285713D01*
X54502438Y-157285713D02*
X54550057Y-157238094D01*
X54550057Y-157238094D02*
X54502438Y-157190475D01*
X54502438Y-157190475D02*
X54454819Y-157238094D01*
X54454819Y-157238094D02*
X54550057Y-157238094D01*
X54788152Y-156761904D02*
X55454819Y-156761904D01*
X54883390Y-156761904D02*
X54835771Y-156714285D01*
X54835771Y-156714285D02*
X54788152Y-156619047D01*
X54788152Y-156619047D02*
X54788152Y-156476190D01*
X54788152Y-156476190D02*
X54835771Y-156380952D01*
X54835771Y-156380952D02*
X54931009Y-156333333D01*
X54931009Y-156333333D02*
X55454819Y-156333333D01*
X55454819Y-155714285D02*
X55407200Y-155809523D01*
X55407200Y-155809523D02*
X55359580Y-155857142D01*
X55359580Y-155857142D02*
X55264342Y-155904761D01*
X55264342Y-155904761D02*
X54978628Y-155904761D01*
X54978628Y-155904761D02*
X54883390Y-155857142D01*
X54883390Y-155857142D02*
X54835771Y-155809523D01*
X54835771Y-155809523D02*
X54788152Y-155714285D01*
X54788152Y-155714285D02*
X54788152Y-155571428D01*
X54788152Y-155571428D02*
X54835771Y-155476190D01*
X54835771Y-155476190D02*
X54883390Y-155428571D01*
X54883390Y-155428571D02*
X54978628Y-155380952D01*
X54978628Y-155380952D02*
X55264342Y-155380952D01*
X55264342Y-155380952D02*
X55359580Y-155428571D01*
X55359580Y-155428571D02*
X55407200Y-155476190D01*
X55407200Y-155476190D02*
X55454819Y-155571428D01*
X55454819Y-155571428D02*
X55454819Y-155714285D01*
X55454819Y-154190475D02*
X54454819Y-154190475D01*
X54454819Y-154190475D02*
X54454819Y-153809523D01*
X54454819Y-153809523D02*
X54502438Y-153714285D01*
X54502438Y-153714285D02*
X54550057Y-153666666D01*
X54550057Y-153666666D02*
X54645295Y-153619047D01*
X54645295Y-153619047D02*
X54788152Y-153619047D01*
X54788152Y-153619047D02*
X54883390Y-153666666D01*
X54883390Y-153666666D02*
X54931009Y-153714285D01*
X54931009Y-153714285D02*
X54978628Y-153809523D01*
X54978628Y-153809523D02*
X54978628Y-154190475D01*
X55454819Y-153190475D02*
X54788152Y-153190475D01*
X54454819Y-153190475D02*
X54502438Y-153238094D01*
X54502438Y-153238094D02*
X54550057Y-153190475D01*
X54550057Y-153190475D02*
X54502438Y-153142856D01*
X54502438Y-153142856D02*
X54454819Y-153190475D01*
X54454819Y-153190475D02*
X54550057Y-153190475D01*
X54788152Y-152714285D02*
X55454819Y-152714285D01*
X54883390Y-152714285D02*
X54835771Y-152666666D01*
X54835771Y-152666666D02*
X54788152Y-152571428D01*
X54788152Y-152571428D02*
X54788152Y-152428571D01*
X54788152Y-152428571D02*
X54835771Y-152333333D01*
X54835771Y-152333333D02*
X54931009Y-152285714D01*
X54931009Y-152285714D02*
X55454819Y-152285714D01*
X55407200Y-151857142D02*
X55454819Y-151761904D01*
X55454819Y-151761904D02*
X55454819Y-151571428D01*
X55454819Y-151571428D02*
X55407200Y-151476190D01*
X55407200Y-151476190D02*
X55311961Y-151428571D01*
X55311961Y-151428571D02*
X55264342Y-151428571D01*
X55264342Y-151428571D02*
X55169104Y-151476190D01*
X55169104Y-151476190D02*
X55121485Y-151571428D01*
X55121485Y-151571428D02*
X55121485Y-151714285D01*
X55121485Y-151714285D02*
X55073866Y-151809523D01*
X55073866Y-151809523D02*
X54978628Y-151857142D01*
X54978628Y-151857142D02*
X54931009Y-151857142D01*
X54931009Y-151857142D02*
X54835771Y-151809523D01*
X54835771Y-151809523D02*
X54788152Y-151714285D01*
X54788152Y-151714285D02*
X54788152Y-151571428D01*
X54788152Y-151571428D02*
X54835771Y-151476190D01*
X22666666Y-150124819D02*
X22666666Y-150839104D01*
X22666666Y-150839104D02*
X22619047Y-150981961D01*
X22619047Y-150981961D02*
X22523809Y-151077200D01*
X22523809Y-151077200D02*
X22380952Y-151124819D01*
X22380952Y-151124819D02*
X22285714Y-151124819D01*
X23047619Y-150124819D02*
X23666666Y-150124819D01*
X23666666Y-150124819D02*
X23333333Y-150505771D01*
X23333333Y-150505771D02*
X23476190Y-150505771D01*
X23476190Y-150505771D02*
X23571428Y-150553390D01*
X23571428Y-150553390D02*
X23619047Y-150601009D01*
X23619047Y-150601009D02*
X23666666Y-150696247D01*
X23666666Y-150696247D02*
X23666666Y-150934342D01*
X23666666Y-150934342D02*
X23619047Y-151029580D01*
X23619047Y-151029580D02*
X23571428Y-151077200D01*
X23571428Y-151077200D02*
X23476190Y-151124819D01*
X23476190Y-151124819D02*
X23190476Y-151124819D01*
X23190476Y-151124819D02*
X23095238Y-151077200D01*
X23095238Y-151077200D02*
X23047619Y-151029580D01*
X25931009Y-161214285D02*
X25978628Y-161071428D01*
X25978628Y-161071428D02*
X26026247Y-161023809D01*
X26026247Y-161023809D02*
X26121485Y-160976190D01*
X26121485Y-160976190D02*
X26264342Y-160976190D01*
X26264342Y-160976190D02*
X26359580Y-161023809D01*
X26359580Y-161023809D02*
X26407200Y-161071428D01*
X26407200Y-161071428D02*
X26454819Y-161166666D01*
X26454819Y-161166666D02*
X26454819Y-161547618D01*
X26454819Y-161547618D02*
X25454819Y-161547618D01*
X25454819Y-161547618D02*
X25454819Y-161214285D01*
X25454819Y-161214285D02*
X25502438Y-161119047D01*
X25502438Y-161119047D02*
X25550057Y-161071428D01*
X25550057Y-161071428D02*
X25645295Y-161023809D01*
X25645295Y-161023809D02*
X25740533Y-161023809D01*
X25740533Y-161023809D02*
X25835771Y-161071428D01*
X25835771Y-161071428D02*
X25883390Y-161119047D01*
X25883390Y-161119047D02*
X25931009Y-161214285D01*
X25931009Y-161214285D02*
X25931009Y-161547618D01*
X25788152Y-160119047D02*
X26454819Y-160119047D01*
X25788152Y-160547618D02*
X26311961Y-160547618D01*
X26311961Y-160547618D02*
X26407200Y-160499999D01*
X26407200Y-160499999D02*
X26454819Y-160404761D01*
X26454819Y-160404761D02*
X26454819Y-160261904D01*
X26454819Y-160261904D02*
X26407200Y-160166666D01*
X26407200Y-160166666D02*
X26359580Y-160119047D01*
X26454819Y-159642856D02*
X25788152Y-159642856D01*
X25883390Y-159642856D02*
X25835771Y-159595237D01*
X25835771Y-159595237D02*
X25788152Y-159499999D01*
X25788152Y-159499999D02*
X25788152Y-159357142D01*
X25788152Y-159357142D02*
X25835771Y-159261904D01*
X25835771Y-159261904D02*
X25931009Y-159214285D01*
X25931009Y-159214285D02*
X26454819Y-159214285D01*
X25931009Y-159214285D02*
X25835771Y-159166666D01*
X25835771Y-159166666D02*
X25788152Y-159071428D01*
X25788152Y-159071428D02*
X25788152Y-158928571D01*
X25788152Y-158928571D02*
X25835771Y-158833332D01*
X25835771Y-158833332D02*
X25931009Y-158785713D01*
X25931009Y-158785713D02*
X26454819Y-158785713D01*
X25788152Y-158309523D02*
X26788152Y-158309523D01*
X25835771Y-158309523D02*
X25788152Y-158214285D01*
X25788152Y-158214285D02*
X25788152Y-158023809D01*
X25788152Y-158023809D02*
X25835771Y-157928571D01*
X25835771Y-157928571D02*
X25883390Y-157880952D01*
X25883390Y-157880952D02*
X25978628Y-157833333D01*
X25978628Y-157833333D02*
X26264342Y-157833333D01*
X26264342Y-157833333D02*
X26359580Y-157880952D01*
X26359580Y-157880952D02*
X26407200Y-157928571D01*
X26407200Y-157928571D02*
X26454819Y-158023809D01*
X26454819Y-158023809D02*
X26454819Y-158214285D01*
X26454819Y-158214285D02*
X26407200Y-158309523D01*
X26407200Y-157023809D02*
X26454819Y-157119047D01*
X26454819Y-157119047D02*
X26454819Y-157309523D01*
X26454819Y-157309523D02*
X26407200Y-157404761D01*
X26407200Y-157404761D02*
X26311961Y-157452380D01*
X26311961Y-157452380D02*
X25931009Y-157452380D01*
X25931009Y-157452380D02*
X25835771Y-157404761D01*
X25835771Y-157404761D02*
X25788152Y-157309523D01*
X25788152Y-157309523D02*
X25788152Y-157119047D01*
X25788152Y-157119047D02*
X25835771Y-157023809D01*
X25835771Y-157023809D02*
X25931009Y-156976190D01*
X25931009Y-156976190D02*
X26026247Y-156976190D01*
X26026247Y-156976190D02*
X26121485Y-157452380D01*
X26454819Y-156547618D02*
X25788152Y-156547618D01*
X25978628Y-156547618D02*
X25883390Y-156499999D01*
X25883390Y-156499999D02*
X25835771Y-156452380D01*
X25835771Y-156452380D02*
X25788152Y-156357142D01*
X25788152Y-156357142D02*
X25788152Y-156261904D01*
X26454819Y-155166665D02*
X25454819Y-155166665D01*
X25454819Y-155166665D02*
X25454819Y-154785713D01*
X25454819Y-154785713D02*
X25502438Y-154690475D01*
X25502438Y-154690475D02*
X25550057Y-154642856D01*
X25550057Y-154642856D02*
X25645295Y-154595237D01*
X25645295Y-154595237D02*
X25788152Y-154595237D01*
X25788152Y-154595237D02*
X25883390Y-154642856D01*
X25883390Y-154642856D02*
X25931009Y-154690475D01*
X25931009Y-154690475D02*
X25978628Y-154785713D01*
X25978628Y-154785713D02*
X25978628Y-155166665D01*
X26454819Y-154166665D02*
X25788152Y-154166665D01*
X25454819Y-154166665D02*
X25502438Y-154214284D01*
X25502438Y-154214284D02*
X25550057Y-154166665D01*
X25550057Y-154166665D02*
X25502438Y-154119046D01*
X25502438Y-154119046D02*
X25454819Y-154166665D01*
X25454819Y-154166665D02*
X25550057Y-154166665D01*
X25788152Y-153690475D02*
X26454819Y-153690475D01*
X25883390Y-153690475D02*
X25835771Y-153642856D01*
X25835771Y-153642856D02*
X25788152Y-153547618D01*
X25788152Y-153547618D02*
X25788152Y-153404761D01*
X25788152Y-153404761D02*
X25835771Y-153309523D01*
X25835771Y-153309523D02*
X25931009Y-153261904D01*
X25931009Y-153261904D02*
X26454819Y-153261904D01*
X26407200Y-152833332D02*
X26454819Y-152738094D01*
X26454819Y-152738094D02*
X26454819Y-152547618D01*
X26454819Y-152547618D02*
X26407200Y-152452380D01*
X26407200Y-152452380D02*
X26311961Y-152404761D01*
X26311961Y-152404761D02*
X26264342Y-152404761D01*
X26264342Y-152404761D02*
X26169104Y-152452380D01*
X26169104Y-152452380D02*
X26121485Y-152547618D01*
X26121485Y-152547618D02*
X26121485Y-152690475D01*
X26121485Y-152690475D02*
X26073866Y-152785713D01*
X26073866Y-152785713D02*
X25978628Y-152833332D01*
X25978628Y-152833332D02*
X25931009Y-152833332D01*
X25931009Y-152833332D02*
X25835771Y-152785713D01*
X25835771Y-152785713D02*
X25788152Y-152690475D01*
X25788152Y-152690475D02*
X25788152Y-152547618D01*
X25788152Y-152547618D02*
X25835771Y-152452380D01*
X58196666Y-146654819D02*
X58196666Y-147369104D01*
X58196666Y-147369104D02*
X58149047Y-147511961D01*
X58149047Y-147511961D02*
X58053809Y-147607200D01*
X58053809Y-147607200D02*
X57910952Y-147654819D01*
X57910952Y-147654819D02*
X57815714Y-147654819D01*
X58625238Y-146750057D02*
X58672857Y-146702438D01*
X58672857Y-146702438D02*
X58768095Y-146654819D01*
X58768095Y-146654819D02*
X59006190Y-146654819D01*
X59006190Y-146654819D02*
X59101428Y-146702438D01*
X59101428Y-146702438D02*
X59149047Y-146750057D01*
X59149047Y-146750057D02*
X59196666Y-146845295D01*
X59196666Y-146845295D02*
X59196666Y-146940533D01*
X59196666Y-146940533D02*
X59149047Y-147083390D01*
X59149047Y-147083390D02*
X58577619Y-147654819D01*
X58577619Y-147654819D02*
X59196666Y-147654819D01*
X55454819Y-149238095D02*
X54454819Y-149238095D01*
X54454819Y-149238095D02*
X55454819Y-148666667D01*
X55454819Y-148666667D02*
X54454819Y-148666667D01*
X55407200Y-147809524D02*
X55454819Y-147904762D01*
X55454819Y-147904762D02*
X55454819Y-148095238D01*
X55454819Y-148095238D02*
X55407200Y-148190476D01*
X55407200Y-148190476D02*
X55311961Y-148238095D01*
X55311961Y-148238095D02*
X54931009Y-148238095D01*
X54931009Y-148238095D02*
X54835771Y-148190476D01*
X54835771Y-148190476D02*
X54788152Y-148095238D01*
X54788152Y-148095238D02*
X54788152Y-147904762D01*
X54788152Y-147904762D02*
X54835771Y-147809524D01*
X54835771Y-147809524D02*
X54931009Y-147761905D01*
X54931009Y-147761905D02*
X55026247Y-147761905D01*
X55026247Y-147761905D02*
X55121485Y-148238095D01*
X55454819Y-147190476D02*
X55407200Y-147285714D01*
X55407200Y-147285714D02*
X55359580Y-147333333D01*
X55359580Y-147333333D02*
X55264342Y-147380952D01*
X55264342Y-147380952D02*
X54978628Y-147380952D01*
X54978628Y-147380952D02*
X54883390Y-147333333D01*
X54883390Y-147333333D02*
X54835771Y-147285714D01*
X54835771Y-147285714D02*
X54788152Y-147190476D01*
X54788152Y-147190476D02*
X54788152Y-147047619D01*
X54788152Y-147047619D02*
X54835771Y-146952381D01*
X54835771Y-146952381D02*
X54883390Y-146904762D01*
X54883390Y-146904762D02*
X54978628Y-146857143D01*
X54978628Y-146857143D02*
X55264342Y-146857143D01*
X55264342Y-146857143D02*
X55359580Y-146904762D01*
X55359580Y-146904762D02*
X55407200Y-146952381D01*
X55407200Y-146952381D02*
X55454819Y-147047619D01*
X55454819Y-147047619D02*
X55454819Y-147190476D01*
X55454819Y-146428571D02*
X54454819Y-146428571D01*
X54454819Y-146428571D02*
X54454819Y-146047619D01*
X54454819Y-146047619D02*
X54502438Y-145952381D01*
X54502438Y-145952381D02*
X54550057Y-145904762D01*
X54550057Y-145904762D02*
X54645295Y-145857143D01*
X54645295Y-145857143D02*
X54788152Y-145857143D01*
X54788152Y-145857143D02*
X54883390Y-145904762D01*
X54883390Y-145904762D02*
X54931009Y-145952381D01*
X54931009Y-145952381D02*
X54978628Y-146047619D01*
X54978628Y-146047619D02*
X54978628Y-146428571D01*
X55454819Y-145428571D02*
X54788152Y-145428571D01*
X54454819Y-145428571D02*
X54502438Y-145476190D01*
X54502438Y-145476190D02*
X54550057Y-145428571D01*
X54550057Y-145428571D02*
X54502438Y-145380952D01*
X54502438Y-145380952D02*
X54454819Y-145428571D01*
X54454819Y-145428571D02*
X54550057Y-145428571D01*
X55454819Y-145047619D02*
X54788152Y-144523810D01*
X54788152Y-145047619D02*
X55454819Y-144523810D01*
X55407200Y-143761905D02*
X55454819Y-143857143D01*
X55454819Y-143857143D02*
X55454819Y-144047619D01*
X55454819Y-144047619D02*
X55407200Y-144142857D01*
X55407200Y-144142857D02*
X55311961Y-144190476D01*
X55311961Y-144190476D02*
X54931009Y-144190476D01*
X54931009Y-144190476D02*
X54835771Y-144142857D01*
X54835771Y-144142857D02*
X54788152Y-144047619D01*
X54788152Y-144047619D02*
X54788152Y-143857143D01*
X54788152Y-143857143D02*
X54835771Y-143761905D01*
X54835771Y-143761905D02*
X54931009Y-143714286D01*
X54931009Y-143714286D02*
X55026247Y-143714286D01*
X55026247Y-143714286D02*
X55121485Y-144190476D01*
X55454819Y-143142857D02*
X55407200Y-143238095D01*
X55407200Y-143238095D02*
X55311961Y-143285714D01*
X55311961Y-143285714D02*
X54454819Y-143285714D01*
X54454819Y-141809523D02*
X54454819Y-141619047D01*
X54454819Y-141619047D02*
X54502438Y-141523809D01*
X54502438Y-141523809D02*
X54597676Y-141428571D01*
X54597676Y-141428571D02*
X54788152Y-141380952D01*
X54788152Y-141380952D02*
X55121485Y-141380952D01*
X55121485Y-141380952D02*
X55311961Y-141428571D01*
X55311961Y-141428571D02*
X55407200Y-141523809D01*
X55407200Y-141523809D02*
X55454819Y-141619047D01*
X55454819Y-141619047D02*
X55454819Y-141809523D01*
X55454819Y-141809523D02*
X55407200Y-141904761D01*
X55407200Y-141904761D02*
X55311961Y-141999999D01*
X55311961Y-141999999D02*
X55121485Y-142047618D01*
X55121485Y-142047618D02*
X54788152Y-142047618D01*
X54788152Y-142047618D02*
X54597676Y-141999999D01*
X54597676Y-141999999D02*
X54502438Y-141904761D01*
X54502438Y-141904761D02*
X54454819Y-141809523D01*
X54788152Y-140523809D02*
X55454819Y-140523809D01*
X54788152Y-140952380D02*
X55311961Y-140952380D01*
X55311961Y-140952380D02*
X55407200Y-140904761D01*
X55407200Y-140904761D02*
X55454819Y-140809523D01*
X55454819Y-140809523D02*
X55454819Y-140666666D01*
X55454819Y-140666666D02*
X55407200Y-140571428D01*
X55407200Y-140571428D02*
X55359580Y-140523809D01*
X54788152Y-140190475D02*
X54788152Y-139809523D01*
X54454819Y-140047618D02*
X55311961Y-140047618D01*
X55311961Y-140047618D02*
X55407200Y-139999999D01*
X55407200Y-139999999D02*
X55454819Y-139904761D01*
X55454819Y-139904761D02*
X55454819Y-139809523D01*
X54788152Y-139476189D02*
X55788152Y-139476189D01*
X54835771Y-139476189D02*
X54788152Y-139380951D01*
X54788152Y-139380951D02*
X54788152Y-139190475D01*
X54788152Y-139190475D02*
X54835771Y-139095237D01*
X54835771Y-139095237D02*
X54883390Y-139047618D01*
X54883390Y-139047618D02*
X54978628Y-138999999D01*
X54978628Y-138999999D02*
X55264342Y-138999999D01*
X55264342Y-138999999D02*
X55359580Y-139047618D01*
X55359580Y-139047618D02*
X55407200Y-139095237D01*
X55407200Y-139095237D02*
X55454819Y-139190475D01*
X55454819Y-139190475D02*
X55454819Y-139380951D01*
X55454819Y-139380951D02*
X55407200Y-139476189D01*
X54788152Y-138142856D02*
X55454819Y-138142856D01*
X54788152Y-138571427D02*
X55311961Y-138571427D01*
X55311961Y-138571427D02*
X55407200Y-138523808D01*
X55407200Y-138523808D02*
X55454819Y-138428570D01*
X55454819Y-138428570D02*
X55454819Y-138285713D01*
X55454819Y-138285713D02*
X55407200Y-138190475D01*
X55407200Y-138190475D02*
X55359580Y-138142856D01*
X54788152Y-137809522D02*
X54788152Y-137428570D01*
X54454819Y-137666665D02*
X55311961Y-137666665D01*
X55311961Y-137666665D02*
X55407200Y-137619046D01*
X55407200Y-137619046D02*
X55454819Y-137523808D01*
X55454819Y-137523808D02*
X55454819Y-137428570D01*
X55407200Y-137142855D02*
X55454819Y-137047617D01*
X55454819Y-137047617D02*
X55454819Y-136857141D01*
X55454819Y-136857141D02*
X55407200Y-136761903D01*
X55407200Y-136761903D02*
X55311961Y-136714284D01*
X55311961Y-136714284D02*
X55264342Y-136714284D01*
X55264342Y-136714284D02*
X55169104Y-136761903D01*
X55169104Y-136761903D02*
X55121485Y-136857141D01*
X55121485Y-136857141D02*
X55121485Y-136999998D01*
X55121485Y-136999998D02*
X55073866Y-137095236D01*
X55073866Y-137095236D02*
X54978628Y-137142855D01*
X54978628Y-137142855D02*
X54931009Y-137142855D01*
X54931009Y-137142855D02*
X54835771Y-137095236D01*
X54835771Y-137095236D02*
X54788152Y-136999998D01*
X54788152Y-136999998D02*
X54788152Y-136857141D01*
X54788152Y-136857141D02*
X54835771Y-136761903D01*
X22666666Y-137124819D02*
X22666666Y-137839104D01*
X22666666Y-137839104D02*
X22619047Y-137981961D01*
X22619047Y-137981961D02*
X22523809Y-138077200D01*
X22523809Y-138077200D02*
X22380952Y-138124819D01*
X22380952Y-138124819D02*
X22285714Y-138124819D01*
X23666666Y-138124819D02*
X23095238Y-138124819D01*
X23380952Y-138124819D02*
X23380952Y-137124819D01*
X23380952Y-137124819D02*
X23285714Y-137267676D01*
X23285714Y-137267676D02*
X23190476Y-137362914D01*
X23190476Y-137362914D02*
X23095238Y-137410533D01*
X26454819Y-149666666D02*
X25454819Y-149666666D01*
X25454819Y-149666666D02*
X26454819Y-149095238D01*
X26454819Y-149095238D02*
X25454819Y-149095238D01*
X26407200Y-148238095D02*
X26454819Y-148333333D01*
X26454819Y-148333333D02*
X26454819Y-148523809D01*
X26454819Y-148523809D02*
X26407200Y-148619047D01*
X26407200Y-148619047D02*
X26311961Y-148666666D01*
X26311961Y-148666666D02*
X25931009Y-148666666D01*
X25931009Y-148666666D02*
X25835771Y-148619047D01*
X25835771Y-148619047D02*
X25788152Y-148523809D01*
X25788152Y-148523809D02*
X25788152Y-148333333D01*
X25788152Y-148333333D02*
X25835771Y-148238095D01*
X25835771Y-148238095D02*
X25931009Y-148190476D01*
X25931009Y-148190476D02*
X26026247Y-148190476D01*
X26026247Y-148190476D02*
X26121485Y-148666666D01*
X26454819Y-147619047D02*
X26407200Y-147714285D01*
X26407200Y-147714285D02*
X26359580Y-147761904D01*
X26359580Y-147761904D02*
X26264342Y-147809523D01*
X26264342Y-147809523D02*
X25978628Y-147809523D01*
X25978628Y-147809523D02*
X25883390Y-147761904D01*
X25883390Y-147761904D02*
X25835771Y-147714285D01*
X25835771Y-147714285D02*
X25788152Y-147619047D01*
X25788152Y-147619047D02*
X25788152Y-147476190D01*
X25788152Y-147476190D02*
X25835771Y-147380952D01*
X25835771Y-147380952D02*
X25883390Y-147333333D01*
X25883390Y-147333333D02*
X25978628Y-147285714D01*
X25978628Y-147285714D02*
X26264342Y-147285714D01*
X26264342Y-147285714D02*
X26359580Y-147333333D01*
X26359580Y-147333333D02*
X26407200Y-147380952D01*
X26407200Y-147380952D02*
X26454819Y-147476190D01*
X26454819Y-147476190D02*
X26454819Y-147619047D01*
X26454819Y-146857142D02*
X25454819Y-146857142D01*
X25454819Y-146857142D02*
X25454819Y-146476190D01*
X25454819Y-146476190D02*
X25502438Y-146380952D01*
X25502438Y-146380952D02*
X25550057Y-146333333D01*
X25550057Y-146333333D02*
X25645295Y-146285714D01*
X25645295Y-146285714D02*
X25788152Y-146285714D01*
X25788152Y-146285714D02*
X25883390Y-146333333D01*
X25883390Y-146333333D02*
X25931009Y-146380952D01*
X25931009Y-146380952D02*
X25978628Y-146476190D01*
X25978628Y-146476190D02*
X25978628Y-146857142D01*
X26454819Y-145857142D02*
X25788152Y-145857142D01*
X25454819Y-145857142D02*
X25502438Y-145904761D01*
X25502438Y-145904761D02*
X25550057Y-145857142D01*
X25550057Y-145857142D02*
X25502438Y-145809523D01*
X25502438Y-145809523D02*
X25454819Y-145857142D01*
X25454819Y-145857142D02*
X25550057Y-145857142D01*
X26454819Y-145476190D02*
X25788152Y-144952381D01*
X25788152Y-145476190D02*
X26454819Y-144952381D01*
X26407200Y-144190476D02*
X26454819Y-144285714D01*
X26454819Y-144285714D02*
X26454819Y-144476190D01*
X26454819Y-144476190D02*
X26407200Y-144571428D01*
X26407200Y-144571428D02*
X26311961Y-144619047D01*
X26311961Y-144619047D02*
X25931009Y-144619047D01*
X25931009Y-144619047D02*
X25835771Y-144571428D01*
X25835771Y-144571428D02*
X25788152Y-144476190D01*
X25788152Y-144476190D02*
X25788152Y-144285714D01*
X25788152Y-144285714D02*
X25835771Y-144190476D01*
X25835771Y-144190476D02*
X25931009Y-144142857D01*
X25931009Y-144142857D02*
X26026247Y-144142857D01*
X26026247Y-144142857D02*
X26121485Y-144619047D01*
X26454819Y-143571428D02*
X26407200Y-143666666D01*
X26407200Y-143666666D02*
X26311961Y-143714285D01*
X26311961Y-143714285D02*
X25454819Y-143714285D01*
X26454819Y-142428570D02*
X25454819Y-142428570D01*
X25788152Y-141952380D02*
X26454819Y-141952380D01*
X25883390Y-141952380D02*
X25835771Y-141904761D01*
X25835771Y-141904761D02*
X25788152Y-141809523D01*
X25788152Y-141809523D02*
X25788152Y-141666666D01*
X25788152Y-141666666D02*
X25835771Y-141571428D01*
X25835771Y-141571428D02*
X25931009Y-141523809D01*
X25931009Y-141523809D02*
X26454819Y-141523809D01*
X25788152Y-141047618D02*
X26788152Y-141047618D01*
X25835771Y-141047618D02*
X25788152Y-140952380D01*
X25788152Y-140952380D02*
X25788152Y-140761904D01*
X25788152Y-140761904D02*
X25835771Y-140666666D01*
X25835771Y-140666666D02*
X25883390Y-140619047D01*
X25883390Y-140619047D02*
X25978628Y-140571428D01*
X25978628Y-140571428D02*
X26264342Y-140571428D01*
X26264342Y-140571428D02*
X26359580Y-140619047D01*
X26359580Y-140619047D02*
X26407200Y-140666666D01*
X26407200Y-140666666D02*
X26454819Y-140761904D01*
X26454819Y-140761904D02*
X26454819Y-140952380D01*
X26454819Y-140952380D02*
X26407200Y-141047618D01*
X25788152Y-139714285D02*
X26454819Y-139714285D01*
X25788152Y-140142856D02*
X26311961Y-140142856D01*
X26311961Y-140142856D02*
X26407200Y-140095237D01*
X26407200Y-140095237D02*
X26454819Y-139999999D01*
X26454819Y-139999999D02*
X26454819Y-139857142D01*
X26454819Y-139857142D02*
X26407200Y-139761904D01*
X26407200Y-139761904D02*
X26359580Y-139714285D01*
X25788152Y-139380951D02*
X25788152Y-138999999D01*
X25454819Y-139238094D02*
X26311961Y-139238094D01*
X26311961Y-139238094D02*
X26407200Y-139190475D01*
X26407200Y-139190475D02*
X26454819Y-139095237D01*
X26454819Y-139095237D02*
X26454819Y-138999999D01*
X26407200Y-138714284D02*
X26454819Y-138619046D01*
X26454819Y-138619046D02*
X26454819Y-138428570D01*
X26454819Y-138428570D02*
X26407200Y-138333332D01*
X26407200Y-138333332D02*
X26311961Y-138285713D01*
X26311961Y-138285713D02*
X26264342Y-138285713D01*
X26264342Y-138285713D02*
X26169104Y-138333332D01*
X26169104Y-138333332D02*
X26121485Y-138428570D01*
X26121485Y-138428570D02*
X26121485Y-138571427D01*
X26121485Y-138571427D02*
X26073866Y-138666665D01*
X26073866Y-138666665D02*
X25978628Y-138714284D01*
X25978628Y-138714284D02*
X25931009Y-138714284D01*
X25931009Y-138714284D02*
X25835771Y-138666665D01*
X25835771Y-138666665D02*
X25788152Y-138571427D01*
X25788152Y-138571427D02*
X25788152Y-138428570D01*
X25788152Y-138428570D02*
X25835771Y-138333332D01*
X31359580Y-156916666D02*
X31407200Y-156964285D01*
X31407200Y-156964285D02*
X31454819Y-157107142D01*
X31454819Y-157107142D02*
X31454819Y-157202380D01*
X31454819Y-157202380D02*
X31407200Y-157345237D01*
X31407200Y-157345237D02*
X31311961Y-157440475D01*
X31311961Y-157440475D02*
X31216723Y-157488094D01*
X31216723Y-157488094D02*
X31026247Y-157535713D01*
X31026247Y-157535713D02*
X30883390Y-157535713D01*
X30883390Y-157535713D02*
X30692914Y-157488094D01*
X30692914Y-157488094D02*
X30597676Y-157440475D01*
X30597676Y-157440475D02*
X30502438Y-157345237D01*
X30502438Y-157345237D02*
X30454819Y-157202380D01*
X30454819Y-157202380D02*
X30454819Y-157107142D01*
X30454819Y-157107142D02*
X30502438Y-156964285D01*
X30502438Y-156964285D02*
X30550057Y-156916666D01*
X30550057Y-156535713D02*
X30502438Y-156488094D01*
X30502438Y-156488094D02*
X30454819Y-156392856D01*
X30454819Y-156392856D02*
X30454819Y-156154761D01*
X30454819Y-156154761D02*
X30502438Y-156059523D01*
X30502438Y-156059523D02*
X30550057Y-156011904D01*
X30550057Y-156011904D02*
X30645295Y-155964285D01*
X30645295Y-155964285D02*
X30740533Y-155964285D01*
X30740533Y-155964285D02*
X30883390Y-156011904D01*
X30883390Y-156011904D02*
X31454819Y-156583332D01*
X31454819Y-156583332D02*
X31454819Y-155964285D01*
X52959580Y-156716666D02*
X53007200Y-156764285D01*
X53007200Y-156764285D02*
X53054819Y-156907142D01*
X53054819Y-156907142D02*
X53054819Y-157002380D01*
X53054819Y-157002380D02*
X53007200Y-157145237D01*
X53007200Y-157145237D02*
X52911961Y-157240475D01*
X52911961Y-157240475D02*
X52816723Y-157288094D01*
X52816723Y-157288094D02*
X52626247Y-157335713D01*
X52626247Y-157335713D02*
X52483390Y-157335713D01*
X52483390Y-157335713D02*
X52292914Y-157288094D01*
X52292914Y-157288094D02*
X52197676Y-157240475D01*
X52197676Y-157240475D02*
X52102438Y-157145237D01*
X52102438Y-157145237D02*
X52054819Y-157002380D01*
X52054819Y-157002380D02*
X52054819Y-156907142D01*
X52054819Y-156907142D02*
X52102438Y-156764285D01*
X52102438Y-156764285D02*
X52150057Y-156716666D01*
X53054819Y-155764285D02*
X53054819Y-156335713D01*
X53054819Y-156049999D02*
X52054819Y-156049999D01*
X52054819Y-156049999D02*
X52197676Y-156145237D01*
X52197676Y-156145237D02*
X52292914Y-156240475D01*
X52292914Y-156240475D02*
X52340533Y-156335713D01*
D11*
%TO.C,TP2*%
X52500000Y-138400000D02*
G75*
G02*
X51100000Y-138400000I-700000J0D01*
G01*
X51100000Y-138400000D02*
G75*
G02*
X52500000Y-138400000I700000J0D01*
G01*
%TO.C,TP1*%
X30500000Y-150400000D02*
G75*
G02*
X29100000Y-150400000I-700000J0D01*
G01*
X29100000Y-150400000D02*
G75*
G02*
X30500000Y-150400000I700000J0D01*
G01*
%TO.C,R4*%
X52232776Y-141277500D02*
X52742224Y-141277500D01*
X52232776Y-142322500D02*
X52742224Y-142322500D01*
%TO.C,R3*%
X45967224Y-142322500D02*
X45457776Y-142322500D01*
X45967224Y-141277500D02*
X45457776Y-141277500D01*
%TO.C,R2*%
X37742224Y-142322500D02*
X37232776Y-142322500D01*
X37742224Y-141277500D02*
X37232776Y-141277500D01*
%TO.C,R1*%
X30032776Y-146877500D02*
X30542224Y-146877500D01*
X30032776Y-147922500D02*
X30542224Y-147922500D01*
%TO.C,Q2*%
X49450000Y-148730000D02*
X49450000Y-145130000D01*
X49438478Y-148768478D02*
G75*
G02*
X44999999Y-146930000I-1838478J1838478D01*
G01*
X45000000Y-146930000D02*
G75*
G02*
X49438478Y-145091522I2600000J0D01*
G01*
%TO.C,Q1*%
X39650000Y-148730000D02*
X39650000Y-145130000D01*
X39638478Y-148768478D02*
G75*
G02*
X35199999Y-146930000I-1838478J1838478D01*
G01*
X35200000Y-146930000D02*
G75*
G02*
X39638478Y-145091522I2600000J0D01*
G01*
%TO.C,J4*%
X60000000Y-154270000D02*
X60000000Y-159410000D01*
X57340000Y-159410000D02*
X60000000Y-159410000D01*
X57340000Y-154270000D02*
X60000000Y-154270000D01*
X57340000Y-154270000D02*
X57340000Y-159410000D01*
X57340000Y-153000000D02*
X57340000Y-151670000D01*
X57340000Y-151670000D02*
X58670000Y-151670000D01*
%TO.C,J3*%
X21670000Y-151670000D02*
X23000000Y-151670000D01*
X21670000Y-153000000D02*
X21670000Y-151670000D01*
X21670000Y-154270000D02*
X21670000Y-161950000D01*
X21670000Y-154270000D02*
X24330000Y-154270000D01*
X21670000Y-161950000D02*
X24330000Y-161950000D01*
X24330000Y-154270000D02*
X24330000Y-161950000D01*
%TO.C,J2*%
X57200000Y-143600000D02*
X57200000Y-138460000D01*
X59860000Y-138460000D02*
X57200000Y-138460000D01*
X59860000Y-143600000D02*
X57200000Y-143600000D01*
X59860000Y-143600000D02*
X59860000Y-138460000D01*
X59860000Y-144870000D02*
X59860000Y-146200000D01*
X59860000Y-146200000D02*
X58530000Y-146200000D01*
%TO.C,J1*%
X24330000Y-141270000D02*
X24330000Y-148950000D01*
X21670000Y-148950000D02*
X24330000Y-148950000D01*
X21670000Y-141270000D02*
X24330000Y-141270000D01*
X21670000Y-141270000D02*
X21670000Y-148950000D01*
X21670000Y-140000000D02*
X21670000Y-138670000D01*
X21670000Y-138670000D02*
X23000000Y-138670000D01*
%TO.C,C2*%
X33825000Y-160892211D02*
X33825000Y-160142211D01*
X33450000Y-160517211D02*
X34200000Y-160517211D01*
X32170000Y-156750000D02*
X39830000Y-156750000D01*
X32170000Y-156710000D02*
X39830000Y-156710000D01*
X32170000Y-156670000D02*
X39830000Y-156670000D01*
X32171000Y-156630000D02*
X39829000Y-156630000D01*
X32173000Y-156590000D02*
X39827000Y-156590000D01*
X32175000Y-156550000D02*
X39825000Y-156550000D01*
X32177000Y-156510000D02*
X34960000Y-156510000D01*
X37040000Y-156510000D02*
X39823000Y-156510000D01*
X32180000Y-156470000D02*
X34960000Y-156470000D01*
X37040000Y-156470000D02*
X39820000Y-156470000D01*
X32183000Y-156430000D02*
X34960000Y-156430000D01*
X37040000Y-156430000D02*
X39817000Y-156430000D01*
X32186000Y-156390000D02*
X34960000Y-156390000D01*
X37040000Y-156390000D02*
X39814000Y-156390000D01*
X32190000Y-156350000D02*
X34960000Y-156350000D01*
X37040000Y-156350000D02*
X39810000Y-156350000D01*
X32195000Y-156310000D02*
X34960000Y-156310000D01*
X37040000Y-156310000D02*
X39805000Y-156310000D01*
X32199000Y-156270000D02*
X34960000Y-156270000D01*
X37040000Y-156270000D02*
X39801000Y-156270000D01*
X32205000Y-156230000D02*
X34960000Y-156230000D01*
X37040000Y-156230000D02*
X39795000Y-156230000D01*
X32210000Y-156190000D02*
X34960000Y-156190000D01*
X37040000Y-156190000D02*
X39790000Y-156190000D01*
X32216000Y-156150000D02*
X34960000Y-156150000D01*
X37040000Y-156150000D02*
X39784000Y-156150000D01*
X32223000Y-156110000D02*
X34960000Y-156110000D01*
X37040000Y-156110000D02*
X39777000Y-156110000D01*
X32230000Y-156070000D02*
X34960000Y-156070000D01*
X37040000Y-156070000D02*
X39770000Y-156070000D01*
X32237000Y-156029000D02*
X34960000Y-156029000D01*
X37040000Y-156029000D02*
X39763000Y-156029000D01*
X32245000Y-155989000D02*
X34960000Y-155989000D01*
X37040000Y-155989000D02*
X39755000Y-155989000D01*
X32253000Y-155949000D02*
X34960000Y-155949000D01*
X37040000Y-155949000D02*
X39747000Y-155949000D01*
X32262000Y-155909000D02*
X34960000Y-155909000D01*
X37040000Y-155909000D02*
X39738000Y-155909000D01*
X32271000Y-155869000D02*
X34960000Y-155869000D01*
X37040000Y-155869000D02*
X39729000Y-155869000D01*
X32280000Y-155829000D02*
X34960000Y-155829000D01*
X37040000Y-155829000D02*
X39720000Y-155829000D01*
X32290000Y-155789000D02*
X34960000Y-155789000D01*
X37040000Y-155789000D02*
X39710000Y-155789000D01*
X32301000Y-155749000D02*
X34960000Y-155749000D01*
X37040000Y-155749000D02*
X39699000Y-155749000D01*
X32312000Y-155709000D02*
X34960000Y-155709000D01*
X37040000Y-155709000D02*
X39688000Y-155709000D01*
X32323000Y-155669000D02*
X34960000Y-155669000D01*
X37040000Y-155669000D02*
X39677000Y-155669000D01*
X32335000Y-155629000D02*
X34960000Y-155629000D01*
X37040000Y-155629000D02*
X39665000Y-155629000D01*
X32347000Y-155589000D02*
X34960000Y-155589000D01*
X37040000Y-155589000D02*
X39653000Y-155589000D01*
X32360000Y-155549000D02*
X34960000Y-155549000D01*
X37040000Y-155549000D02*
X39640000Y-155549000D01*
X32374000Y-155509000D02*
X34960000Y-155509000D01*
X37040000Y-155509000D02*
X39626000Y-155509000D01*
X32387000Y-155469000D02*
X34960000Y-155469000D01*
X37040000Y-155469000D02*
X39613000Y-155469000D01*
X32402000Y-155429000D02*
X34960000Y-155429000D01*
X37040000Y-155429000D02*
X39598000Y-155429000D01*
X32416000Y-155389000D02*
X34960000Y-155389000D01*
X37040000Y-155389000D02*
X39584000Y-155389000D01*
X32432000Y-155349000D02*
X34960000Y-155349000D01*
X37040000Y-155349000D02*
X39568000Y-155349000D01*
X32447000Y-155309000D02*
X34960000Y-155309000D01*
X37040000Y-155309000D02*
X39553000Y-155309000D01*
X32464000Y-155269000D02*
X34960000Y-155269000D01*
X37040000Y-155269000D02*
X39536000Y-155269000D01*
X32480000Y-155229000D02*
X34960000Y-155229000D01*
X37040000Y-155229000D02*
X39520000Y-155229000D01*
X32498000Y-155189000D02*
X34960000Y-155189000D01*
X37040000Y-155189000D02*
X39502000Y-155189000D01*
X32516000Y-155149000D02*
X34960000Y-155149000D01*
X37040000Y-155149000D02*
X39484000Y-155149000D01*
X32534000Y-155109000D02*
X34960000Y-155109000D01*
X37040000Y-155109000D02*
X39466000Y-155109000D01*
X32553000Y-155069000D02*
X34960000Y-155069000D01*
X37040000Y-155069000D02*
X39447000Y-155069000D01*
X32573000Y-155029000D02*
X34960000Y-155029000D01*
X37040000Y-155029000D02*
X39427000Y-155029000D01*
X32593000Y-154989000D02*
X34960000Y-154989000D01*
X37040000Y-154989000D02*
X39407000Y-154989000D01*
X32614000Y-154949000D02*
X34960000Y-154949000D01*
X37040000Y-154949000D02*
X39386000Y-154949000D01*
X32635000Y-154909000D02*
X34960000Y-154909000D01*
X37040000Y-154909000D02*
X39365000Y-154909000D01*
X32657000Y-154869000D02*
X34960000Y-154869000D01*
X37040000Y-154869000D02*
X39343000Y-154869000D01*
X32679000Y-154829000D02*
X34960000Y-154829000D01*
X37040000Y-154829000D02*
X39321000Y-154829000D01*
X32703000Y-154789000D02*
X34960000Y-154789000D01*
X37040000Y-154789000D02*
X39297000Y-154789000D01*
X32726000Y-154749000D02*
X34960000Y-154749000D01*
X37040000Y-154749000D02*
X39274000Y-154749000D01*
X32751000Y-154709000D02*
X34960000Y-154709000D01*
X37040000Y-154709000D02*
X39249000Y-154709000D01*
X32776000Y-154669000D02*
X34960000Y-154669000D01*
X37040000Y-154669000D02*
X39224000Y-154669000D01*
X32802000Y-154629000D02*
X34960000Y-154629000D01*
X37040000Y-154629000D02*
X39198000Y-154629000D01*
X32828000Y-154589000D02*
X34960000Y-154589000D01*
X37040000Y-154589000D02*
X39172000Y-154589000D01*
X32856000Y-154549000D02*
X34960000Y-154549000D01*
X37040000Y-154549000D02*
X39144000Y-154549000D01*
X32884000Y-154509000D02*
X34960000Y-154509000D01*
X37040000Y-154509000D02*
X39116000Y-154509000D01*
X32912000Y-154469000D02*
X34960000Y-154469000D01*
X37040000Y-154469000D02*
X39088000Y-154469000D01*
X32942000Y-154429000D02*
X39058000Y-154429000D01*
X32972000Y-154389000D02*
X39028000Y-154389000D01*
X33004000Y-154349000D02*
X38996000Y-154349000D01*
X33036000Y-154309000D02*
X38964000Y-154309000D01*
X33069000Y-154269000D02*
X38931000Y-154269000D01*
X33102000Y-154229000D02*
X38898000Y-154229000D01*
X33137000Y-154189000D02*
X38863000Y-154189000D01*
X33173000Y-154149000D02*
X38827000Y-154149000D01*
X33210000Y-154109000D02*
X38790000Y-154109000D01*
X33248000Y-154069000D02*
X38752000Y-154069000D01*
X33287000Y-154029000D02*
X38713000Y-154029000D01*
X33327000Y-153989000D02*
X38673000Y-153989000D01*
X33368000Y-153949000D02*
X38632000Y-153949000D01*
X33411000Y-153909000D02*
X38589000Y-153909000D01*
X33454000Y-153869000D02*
X38546000Y-153869000D01*
X33500000Y-153829000D02*
X38500000Y-153829000D01*
X33546000Y-153789000D02*
X38454000Y-153789000D01*
X33595000Y-153749000D02*
X38405000Y-153749000D01*
X33645000Y-153709000D02*
X38355000Y-153709000D01*
X33696000Y-153669000D02*
X38304000Y-153669000D01*
X33750000Y-153629000D02*
X38250000Y-153629000D01*
X33805000Y-153589000D02*
X38195000Y-153589000D01*
X33863000Y-153549000D02*
X38137000Y-153549000D01*
X33923000Y-153509000D02*
X38077000Y-153509000D01*
X33986000Y-153469000D02*
X38014000Y-153469000D01*
X34051000Y-153429000D02*
X37949000Y-153429000D01*
X34119000Y-153389000D02*
X37881000Y-153389000D01*
X34191000Y-153349000D02*
X37809000Y-153349000D01*
X34267000Y-153309000D02*
X37733000Y-153309000D01*
X34346000Y-153269000D02*
X37654000Y-153269000D01*
X34431000Y-153229000D02*
X37569000Y-153229000D01*
X34522000Y-153189000D02*
X37478000Y-153189000D01*
X34619000Y-153149000D02*
X37381000Y-153149000D01*
X34725000Y-153109000D02*
X37275000Y-153109000D01*
X34842000Y-153069000D02*
X37158000Y-153069000D01*
X34972000Y-153029000D02*
X37028000Y-153029000D01*
X35123000Y-152989000D02*
X36877000Y-152989000D01*
X35307000Y-152949000D02*
X36693000Y-152949000D01*
X35559000Y-152909000D02*
X36441000Y-152909000D01*
X39870000Y-156750000D02*
G75*
G02*
X32130000Y-156750000I-3870000J0D01*
G01*
X32130000Y-156750000D02*
G75*
G02*
X39870000Y-156750000I3870000J0D01*
G01*
%TO.C,C1*%
X49775000Y-152407789D02*
X49775000Y-153157789D01*
X50150000Y-152782789D02*
X49400000Y-152782789D01*
X51430000Y-156550000D02*
X43770000Y-156550000D01*
X51430000Y-156590000D02*
X43770000Y-156590000D01*
X51430000Y-156630000D02*
X43770000Y-156630000D01*
X51429000Y-156670000D02*
X43771000Y-156670000D01*
X51427000Y-156710000D02*
X43773000Y-156710000D01*
X51425000Y-156750000D02*
X43775000Y-156750000D01*
X51423000Y-156790000D02*
X48640000Y-156790000D01*
X46560000Y-156790000D02*
X43777000Y-156790000D01*
X51420000Y-156830000D02*
X48640000Y-156830000D01*
X46560000Y-156830000D02*
X43780000Y-156830000D01*
X51417000Y-156870000D02*
X48640000Y-156870000D01*
X46560000Y-156870000D02*
X43783000Y-156870000D01*
X51414000Y-156910000D02*
X48640000Y-156910000D01*
X46560000Y-156910000D02*
X43786000Y-156910000D01*
X51410000Y-156950000D02*
X48640000Y-156950000D01*
X46560000Y-156950000D02*
X43790000Y-156950000D01*
X51405000Y-156990000D02*
X48640000Y-156990000D01*
X46560000Y-156990000D02*
X43795000Y-156990000D01*
X51401000Y-157030000D02*
X48640000Y-157030000D01*
X46560000Y-157030000D02*
X43799000Y-157030000D01*
X51395000Y-157070000D02*
X48640000Y-157070000D01*
X46560000Y-157070000D02*
X43805000Y-157070000D01*
X51390000Y-157110000D02*
X48640000Y-157110000D01*
X46560000Y-157110000D02*
X43810000Y-157110000D01*
X51384000Y-157150000D02*
X48640000Y-157150000D01*
X46560000Y-157150000D02*
X43816000Y-157150000D01*
X51377000Y-157190000D02*
X48640000Y-157190000D01*
X46560000Y-157190000D02*
X43823000Y-157190000D01*
X51370000Y-157230000D02*
X48640000Y-157230000D01*
X46560000Y-157230000D02*
X43830000Y-157230000D01*
X51363000Y-157271000D02*
X48640000Y-157271000D01*
X46560000Y-157271000D02*
X43837000Y-157271000D01*
X51355000Y-157311000D02*
X48640000Y-157311000D01*
X46560000Y-157311000D02*
X43845000Y-157311000D01*
X51347000Y-157351000D02*
X48640000Y-157351000D01*
X46560000Y-157351000D02*
X43853000Y-157351000D01*
X51338000Y-157391000D02*
X48640000Y-157391000D01*
X46560000Y-157391000D02*
X43862000Y-157391000D01*
X51329000Y-157431000D02*
X48640000Y-157431000D01*
X46560000Y-157431000D02*
X43871000Y-157431000D01*
X51320000Y-157471000D02*
X48640000Y-157471000D01*
X46560000Y-157471000D02*
X43880000Y-157471000D01*
X51310000Y-157511000D02*
X48640000Y-157511000D01*
X46560000Y-157511000D02*
X43890000Y-157511000D01*
X51299000Y-157551000D02*
X48640000Y-157551000D01*
X46560000Y-157551000D02*
X43901000Y-157551000D01*
X51288000Y-157591000D02*
X48640000Y-157591000D01*
X46560000Y-157591000D02*
X43912000Y-157591000D01*
X51277000Y-157631000D02*
X48640000Y-157631000D01*
X46560000Y-157631000D02*
X43923000Y-157631000D01*
X51265000Y-157671000D02*
X48640000Y-157671000D01*
X46560000Y-157671000D02*
X43935000Y-157671000D01*
X51253000Y-157711000D02*
X48640000Y-157711000D01*
X46560000Y-157711000D02*
X43947000Y-157711000D01*
X51240000Y-157751000D02*
X48640000Y-157751000D01*
X46560000Y-157751000D02*
X43960000Y-157751000D01*
X51226000Y-157791000D02*
X48640000Y-157791000D01*
X46560000Y-157791000D02*
X43974000Y-157791000D01*
X51213000Y-157831000D02*
X48640000Y-157831000D01*
X46560000Y-157831000D02*
X43987000Y-157831000D01*
X51198000Y-157871000D02*
X48640000Y-157871000D01*
X46560000Y-157871000D02*
X44002000Y-157871000D01*
X51184000Y-157911000D02*
X48640000Y-157911000D01*
X46560000Y-157911000D02*
X44016000Y-157911000D01*
X51168000Y-157951000D02*
X48640000Y-157951000D01*
X46560000Y-157951000D02*
X44032000Y-157951000D01*
X51153000Y-157991000D02*
X48640000Y-157991000D01*
X46560000Y-157991000D02*
X44047000Y-157991000D01*
X51136000Y-158031000D02*
X48640000Y-158031000D01*
X46560000Y-158031000D02*
X44064000Y-158031000D01*
X51120000Y-158071000D02*
X48640000Y-158071000D01*
X46560000Y-158071000D02*
X44080000Y-158071000D01*
X51102000Y-158111000D02*
X48640000Y-158111000D01*
X46560000Y-158111000D02*
X44098000Y-158111000D01*
X51084000Y-158151000D02*
X48640000Y-158151000D01*
X46560000Y-158151000D02*
X44116000Y-158151000D01*
X51066000Y-158191000D02*
X48640000Y-158191000D01*
X46560000Y-158191000D02*
X44134000Y-158191000D01*
X51047000Y-158231000D02*
X48640000Y-158231000D01*
X46560000Y-158231000D02*
X44153000Y-158231000D01*
X51027000Y-158271000D02*
X48640000Y-158271000D01*
X46560000Y-158271000D02*
X44173000Y-158271000D01*
X51007000Y-158311000D02*
X48640000Y-158311000D01*
X46560000Y-158311000D02*
X44193000Y-158311000D01*
X50986000Y-158351000D02*
X48640000Y-158351000D01*
X46560000Y-158351000D02*
X44214000Y-158351000D01*
X50965000Y-158391000D02*
X48640000Y-158391000D01*
X46560000Y-158391000D02*
X44235000Y-158391000D01*
X50943000Y-158431000D02*
X48640000Y-158431000D01*
X46560000Y-158431000D02*
X44257000Y-158431000D01*
X50921000Y-158471000D02*
X48640000Y-158471000D01*
X46560000Y-158471000D02*
X44279000Y-158471000D01*
X50897000Y-158511000D02*
X48640000Y-158511000D01*
X46560000Y-158511000D02*
X44303000Y-158511000D01*
X50874000Y-158551000D02*
X48640000Y-158551000D01*
X46560000Y-158551000D02*
X44326000Y-158551000D01*
X50849000Y-158591000D02*
X48640000Y-158591000D01*
X46560000Y-158591000D02*
X44351000Y-158591000D01*
X50824000Y-158631000D02*
X48640000Y-158631000D01*
X46560000Y-158631000D02*
X44376000Y-158631000D01*
X50798000Y-158671000D02*
X48640000Y-158671000D01*
X46560000Y-158671000D02*
X44402000Y-158671000D01*
X50772000Y-158711000D02*
X48640000Y-158711000D01*
X46560000Y-158711000D02*
X44428000Y-158711000D01*
X50744000Y-158751000D02*
X48640000Y-158751000D01*
X46560000Y-158751000D02*
X44456000Y-158751000D01*
X50716000Y-158791000D02*
X48640000Y-158791000D01*
X46560000Y-158791000D02*
X44484000Y-158791000D01*
X50688000Y-158831000D02*
X48640000Y-158831000D01*
X46560000Y-158831000D02*
X44512000Y-158831000D01*
X50658000Y-158871000D02*
X44542000Y-158871000D01*
X50628000Y-158911000D02*
X44572000Y-158911000D01*
X50596000Y-158951000D02*
X44604000Y-158951000D01*
X50564000Y-158991000D02*
X44636000Y-158991000D01*
X50531000Y-159031000D02*
X44669000Y-159031000D01*
X50498000Y-159071000D02*
X44702000Y-159071000D01*
X50463000Y-159111000D02*
X44737000Y-159111000D01*
X50427000Y-159151000D02*
X44773000Y-159151000D01*
X50390000Y-159191000D02*
X44810000Y-159191000D01*
X50352000Y-159231000D02*
X44848000Y-159231000D01*
X50313000Y-159271000D02*
X44887000Y-159271000D01*
X50273000Y-159311000D02*
X44927000Y-159311000D01*
X50232000Y-159351000D02*
X44968000Y-159351000D01*
X50189000Y-159391000D02*
X45011000Y-159391000D01*
X50146000Y-159431000D02*
X45054000Y-159431000D01*
X50100000Y-159471000D02*
X45100000Y-159471000D01*
X50054000Y-159511000D02*
X45146000Y-159511000D01*
X50005000Y-159551000D02*
X45195000Y-159551000D01*
X49955000Y-159591000D02*
X45245000Y-159591000D01*
X49904000Y-159631000D02*
X45296000Y-159631000D01*
X49850000Y-159671000D02*
X45350000Y-159671000D01*
X49795000Y-159711000D02*
X45405000Y-159711000D01*
X49737000Y-159751000D02*
X45463000Y-159751000D01*
X49677000Y-159791000D02*
X45523000Y-159791000D01*
X49614000Y-159831000D02*
X45586000Y-159831000D01*
X49549000Y-159871000D02*
X45651000Y-159871000D01*
X49481000Y-159911000D02*
X45719000Y-159911000D01*
X49409000Y-159951000D02*
X45791000Y-159951000D01*
X49333000Y-159991000D02*
X45867000Y-159991000D01*
X49254000Y-160031000D02*
X45946000Y-160031000D01*
X49169000Y-160071000D02*
X46031000Y-160071000D01*
X49078000Y-160111000D02*
X46122000Y-160111000D01*
X48981000Y-160151000D02*
X46219000Y-160151000D01*
X48875000Y-160191000D02*
X46325000Y-160191000D01*
X48758000Y-160231000D02*
X46442000Y-160231000D01*
X48628000Y-160271000D02*
X46572000Y-160271000D01*
X48477000Y-160311000D02*
X46723000Y-160311000D01*
X48293000Y-160351000D02*
X46907000Y-160351000D01*
X48041000Y-160391000D02*
X47159000Y-160391000D01*
X51470000Y-156550000D02*
G75*
G02*
X43730000Y-156550000I-3870000J0D01*
G01*
X43730000Y-156550000D02*
G75*
G02*
X51470000Y-156550000I3870000J0D01*
G01*
%TD*%
M02*
